<?xml version="1.0" encoding="UTF-8" standalone="no"?><svg xmlns="http://www.w3.org/2000/svg" xmlns:xlink="http://www.w3.org/1999/xlink" contentScriptType="application/ecmascript" contentStyleType="text/css" height="1691px" preserveAspectRatio="none" style="width:2881px;height:1691px;" version="1.1" viewBox="0 0 2881 1691" width="2881px" zoomAndPan="magnify"><defs><filter height="300%" id="fs00jrv6ikh5n" width="300%" x="-1" y="-1"><feGaussianBlur result="blurOut" stdDeviation="2.0"/><feColorMatrix in="blurOut" result="blurOut2" type="matrix" values="0 0 0 0 0 0 0 0 0 0 0 0 0 0 0 0 0 0 .4 0"/><feOffset dx="4.0" dy="4.0" in="blurOut2" result="blurOut3"/><feBlend in="SourceGraphic" in2="blurOut3" mode="normal"/></filter></defs><g><!--class Node--><rect fill="#FEFECE" filter="url(#fs00jrv6ikh5n)" height="124.8281" id="Node" style="stroke: #A80036; stroke-width: 1.5;" width="307" x="477.5" y="480"/><ellipse cx="610.25" cy="496" fill="#B4A7E5" rx="11" ry="11" style="stroke: #A80036; stroke-width: 1.0;"/><path d="M611.2031,492.7813 L611.2031,499.2969 L612.9219,499.2969 C613.375,499.2969 613.5156,499.3281 613.6875,499.4531 C613.9219,499.625 614.0313,499.875 614.0313,500.1563 C614.0313,500.7188 613.6719,501 612.9219,501 L607.7813,501 C607.375,501 607.1719,500.9531 607.0156,500.8281 C606.7969,500.6719 606.6563,500.4063 606.6563,500.1563 C606.6563,499.8594 606.8125,499.5781 607.0625,499.4219 C607.2188,499.3125 607.3438,499.2969 607.7813,499.2969 L609.5,499.2969 L609.5,492.7813 L607.7813,492.7813 C607.3594,492.7813 607.1719,492.75 607.0156,492.6406 C606.7969,492.4688 606.6563,492.2188 606.6563,491.9375 C606.6563,491.6563 606.8125,491.3594 607.0625,491.2031 C607.2188,491.1094 607.3438,491.0938 607.7813,491.0938 L612.9219,491.0938 C613.375,491.0938 613.5156,491.125 613.6875,491.2344 C613.9219,491.4063 614.0313,491.6719 614.0313,491.9375 C614.0313,492.2344 613.8906,492.5156 613.625,492.6719 C613.5,492.75 613.3125,492.7813 612.9219,492.7813 Z "/><text fill="#000000" font-family="sans-serif" font-size="12" font-style="italic" lengthAdjust="spacingAndGlyphs" textLength="33" x="630.75" y="500.1543">Node</text><line style="stroke: #A80036; stroke-width: 1.5;" x1="478.5" x2="783.5" y1="512" y2="512"/><ellipse cx="488.5" cy="523.9023" fill="none" rx="3" ry="3" style="stroke: #038048; stroke-width: 1.0;"/><text fill="#000000" font-family="sans-serif" font-size="11" lengthAdjust="spacingAndGlyphs" textLength="66" x="497.5" y="526.2104">id : number</text><ellipse cx="488.5" cy="536.707" fill="none" rx="3" ry="3" style="stroke: #038048; stroke-width: 1.0;"/><text fill="#000000" font-family="sans-serif" font-size="11" lengthAdjust="spacingAndGlyphs" textLength="66" x="497.5" y="539.0151">title : string</text><ellipse cx="488.5" cy="549.5117" fill="none" rx="3" ry="3" style="stroke: #038048; stroke-width: 1.0;"/><text fill="#000000" font-family="sans-serif" font-size="11" lengthAdjust="spacingAndGlyphs" textLength="192" x="497.5" y="551.8198">relationships : NodeRelationship[]</text><line style="stroke: #A80036; stroke-width: 1.5;" x1="478.5" x2="783.5" y1="558.4141" y2="558.4141"/><ellipse cx="488.5" cy="570.3164" fill="#84BE84" rx="3" ry="3" style="stroke: #038048; stroke-width: 1.0;"/><text fill="#000000" font-family="sans-serif" font-size="11" lengthAdjust="spacingAndGlyphs" textLength="250" x="497.5" y="572.6245">addRelationship(rel: NodeRelationship): void</text><ellipse cx="488.5" cy="583.1211" fill="#84BE84" rx="3" ry="3" style="stroke: #038048; stroke-width: 1.0;"/><text fill="#000000" font-family="sans-serif" font-size="11" lengthAdjust="spacingAndGlyphs" textLength="281" x="497.5" y="585.4292">removeRelationship(relationshipID: number): void</text><ellipse cx="488.5" cy="595.9258" fill="#84BE84" rx="3" ry="3" style="stroke: #038048; stroke-width: 1.0;"/><text fill="#000000" font-family="sans-serif" font-size="11" lengthAdjust="spacingAndGlyphs" textLength="69" x="497.5" y="598.2339">run(): Data[]</text><!--class EtlNode--><rect fill="#FEFECE" filter="url(#fs00jrv6ikh5n)" height="163.2422" id="EtlNode" style="stroke: #A80036; stroke-width: 1.5;" width="307" x="477.5" y="665"/><ellipse cx="602.25" cy="681" fill="#ADD1B2" rx="11" ry="11" style="stroke: #A80036; stroke-width: 1.0;"/><path d="M604.5938,676.6719 L604.7656,676.75 C604.9844,676.4375 605.1875,676.3438 605.4844,676.3438 C605.7813,676.3438 606.0625,676.4844 606.2188,676.75 C606.3125,676.9063 606.3281,677.0313 606.3281,677.4688 L606.3281,678.8906 C606.3281,679.3125 606.2969,679.5 606.1875,679.6563 C606.0156,679.875 605.75,680.0156 605.4844,680.0156 C605.2656,680.0156 605.0313,679.9063 604.8906,679.7656 C604.75,679.6406 604.7188,679.5156 604.6563,679.1094 C604.5625,678.7031 604.3906,678.4844 603.9063,678.2031 C603.4375,677.9531 602.8281,677.7969 602.25,677.7969 C600.5156,677.7969 599.2656,679.1094 599.2656,680.8906 L599.2656,681.9844 C599.2656,683.6875 600.5625,684.7813 602.6094,684.7813 C603.375,684.7813 604.0625,684.6563 604.4844,684.3906 C604.6719,684.2969 604.6719,684.2969 605.125,683.8125 C605.3125,683.625 605.5156,683.5469 605.7344,683.5469 C606.2031,683.5469 606.5938,683.9375 606.5938,684.3906 C606.5938,684.7813 606.2656,685.2344 605.6875,685.6406 C604.9375,686.1875 603.7813,686.4844 602.5625,686.4844 C599.6719,686.4844 597.5625,684.5938 597.5625,682.0156 L597.5625,680.8906 C597.5625,678.1719 599.5625,676.0938 602.1875,676.0938 C603.0625,676.0938 603.6563,676.2344 604.5938,676.6719 Z "/><text fill="#000000" font-family="sans-serif" font-size="12" lengthAdjust="spacingAndGlyphs" textLength="49" x="622.75" y="685.1543">EtlNode</text><line style="stroke: #A80036; stroke-width: 1.5;" x1="478.5" x2="783.5" y1="697" y2="697"/><ellipse cx="488.5" cy="708.9023" fill="none" rx="3" ry="3" style="stroke: #038048; stroke-width: 1.0;"/><text fill="#000000" font-family="sans-serif" font-size="11" lengthAdjust="spacingAndGlyphs" textLength="66" x="497.5" y="711.2104">id : number</text><ellipse cx="488.5" cy="721.707" fill="none" rx="3" ry="3" style="stroke: #038048; stroke-width: 1.0;"/><text fill="#000000" font-family="sans-serif" font-size="11" lengthAdjust="spacingAndGlyphs" textLength="66" x="497.5" y="724.0151">title : string</text><ellipse cx="488.5" cy="734.5117" fill="none" rx="3" ry="3" style="stroke: #038048; stroke-width: 1.0;"/><text fill="#000000" font-family="sans-serif" font-size="11" lengthAdjust="spacingAndGlyphs" textLength="126" x="497.5" y="736.8198">command : Command</text><ellipse cx="488.5" cy="747.3164" fill="none" rx="3" ry="3" style="stroke: #038048; stroke-width: 1.0;"/><text fill="#000000" font-family="sans-serif" font-size="11" lengthAdjust="spacingAndGlyphs" textLength="81" x="497.5" y="749.6245">inputs : Data[]</text><ellipse cx="488.5" cy="760.1211" fill="none" rx="3" ry="3" style="stroke: #038048; stroke-width: 1.0;"/><text fill="#000000" font-family="sans-serif" font-size="11" lengthAdjust="spacingAndGlyphs" textLength="192" x="497.5" y="762.4292">relationships : NodeRelationship[]</text><ellipse cx="488.5" cy="772.9258" fill="none" rx="3" ry="3" style="stroke: #038048; stroke-width: 1.0;"/><text fill="#000000" font-family="sans-serif" font-size="11" lengthAdjust="spacingAndGlyphs" textLength="114" x="497.5" y="775.2339">status : NodeStatus</text><line style="stroke: #A80036; stroke-width: 1.5;" x1="478.5" x2="783.5" y1="781.8281" y2="781.8281"/><ellipse cx="488.5" cy="793.7305" fill="#84BE84" rx="3" ry="3" style="stroke: #038048; stroke-width: 1.0;"/><text fill="#000000" font-family="sans-serif" font-size="11" lengthAdjust="spacingAndGlyphs" textLength="250" x="497.5" y="796.0386">addRelationship(rel: NodeRelationship): void</text><ellipse cx="488.5" cy="806.5352" fill="#84BE84" rx="3" ry="3" style="stroke: #038048; stroke-width: 1.0;"/><text fill="#000000" font-family="sans-serif" font-size="11" lengthAdjust="spacingAndGlyphs" textLength="281" x="497.5" y="808.8433">removeRelationship(relationshipID: number): void</text><ellipse cx="488.5" cy="819.3398" fill="#84BE84" rx="3" ry="3" style="stroke: #038048; stroke-width: 1.0;"/><text fill="#000000" font-family="sans-serif" font-size="11" lengthAdjust="spacingAndGlyphs" textLength="69" x="497.5" y="821.6479">run(): Data[]</text><!--class Command--><rect fill="#FEFECE" filter="url(#fs00jrv6ikh5n)" height="60.8047" id="Command" style="stroke: #A80036; stroke-width: 1.5;" width="197" x="439.5" y="888"/><ellipse cx="502.75" cy="904" fill="#B4A7E5" rx="11" ry="11" style="stroke: #A80036; stroke-width: 1.0;"/><path d="M503.7031,900.7813 L503.7031,907.2969 L505.4219,907.2969 C505.875,907.2969 506.0156,907.3281 506.1875,907.4531 C506.4219,907.625 506.5313,907.875 506.5313,908.1563 C506.5313,908.7188 506.1719,909 505.4219,909 L500.2813,909 C499.875,909 499.6719,908.9531 499.5156,908.8281 C499.2969,908.6719 499.1563,908.4063 499.1563,908.1563 C499.1563,907.8594 499.3125,907.5781 499.5625,907.4219 C499.7188,907.3125 499.8438,907.2969 500.2813,907.2969 L502,907.2969 L502,900.7813 L500.2813,900.7813 C499.8594,900.7813 499.6719,900.75 499.5156,900.6406 C499.2969,900.4688 499.1563,900.2188 499.1563,899.9375 C499.1563,899.6563 499.3125,899.3594 499.5625,899.2031 C499.7188,899.1094 499.8438,899.0938 500.2813,899.0938 L505.4219,899.0938 C505.875,899.0938 506.0156,899.125 506.1875,899.2344 C506.4219,899.4063 506.5313,899.6719 506.5313,899.9375 C506.5313,900.2344 506.3906,900.5156 506.125,900.6719 C506,900.75 505.8125,900.7813 505.4219,900.7813 Z "/><text fill="#000000" font-family="sans-serif" font-size="12" font-style="italic" lengthAdjust="spacingAndGlyphs" textLength="62" x="523.25" y="908.1543">Command</text><line style="stroke: #A80036; stroke-width: 1.5;" x1="440.5" x2="635.5" y1="920" y2="920"/><line style="stroke: #A80036; stroke-width: 1.5;" x1="440.5" x2="635.5" y1="928" y2="928"/><ellipse cx="450.5" cy="939.9023" fill="#84BE84" rx="3" ry="3" style="stroke: #038048; stroke-width: 1.0;"/><text fill="#000000" font-family="sans-serif" font-size="11" lengthAdjust="spacingAndGlyphs" textLength="171" x="459.5" y="942.2104">execute(inputs: Data[]): Data[]</text><!--class Processor--><rect fill="#FEFECE" filter="url(#fs00jrv6ikh5n)" height="99.2188" id="Processor" style="stroke: #A80036; stroke-width: 1.5;" width="206" x="435" y="1009"/><ellipse cx="502.25" cy="1025" fill="#ADD1B2" rx="11" ry="11" style="stroke: #A80036; stroke-width: 1.0;"/><path d="M504.5938,1020.6719 L504.7656,1020.75 C504.9844,1020.4375 505.1875,1020.3438 505.4844,1020.3438 C505.7813,1020.3438 506.0625,1020.4844 506.2188,1020.75 C506.3125,1020.9063 506.3281,1021.0313 506.3281,1021.4688 L506.3281,1022.8906 C506.3281,1023.3125 506.2969,1023.5 506.1875,1023.6563 C506.0156,1023.875 505.75,1024.0156 505.4844,1024.0156 C505.2656,1024.0156 505.0313,1023.9063 504.8906,1023.7656 C504.75,1023.6406 504.7188,1023.5156 504.6563,1023.1094 C504.5625,1022.7031 504.3906,1022.4844 503.9063,1022.2031 C503.4375,1021.9531 502.8281,1021.7969 502.25,1021.7969 C500.5156,1021.7969 499.2656,1023.1094 499.2656,1024.8906 L499.2656,1025.9844 C499.2656,1027.6875 500.5625,1028.7813 502.6094,1028.7813 C503.375,1028.7813 504.0625,1028.6563 504.4844,1028.3906 C504.6719,1028.2969 504.6719,1028.2969 505.125,1027.8125 C505.3125,1027.625 505.5156,1027.5469 505.7344,1027.5469 C506.2031,1027.5469 506.5938,1027.9375 506.5938,1028.3906 C506.5938,1028.7813 506.2656,1029.2344 505.6875,1029.6406 C504.9375,1030.1875 503.7813,1030.4844 502.5625,1030.4844 C499.6719,1030.4844 497.5625,1028.5938 497.5625,1026.0156 L497.5625,1024.8906 C497.5625,1022.1719 499.5625,1020.0938 502.1875,1020.0938 C503.0625,1020.0938 503.6563,1020.2344 504.5938,1020.6719 Z "/><text fill="#000000" font-family="sans-serif" font-size="12" lengthAdjust="spacingAndGlyphs" textLength="63" x="522.75" y="1029.1543">Processor</text><line style="stroke: #A80036; stroke-width: 1.5;" x1="436" x2="640" y1="1041" y2="1041"/><ellipse cx="446" cy="1052.9023" fill="none" rx="3" ry="3" style="stroke: #038048; stroke-width: 1.0;"/><text fill="#000000" font-family="sans-serif" font-size="11" lengthAdjust="spacingAndGlyphs" textLength="180" x="455" y="1055.2104">attributes : ProcessorAttributes</text><ellipse cx="446" cy="1065.707" fill="none" rx="3" ry="3" style="stroke: #038048; stroke-width: 1.0;"/><text fill="#000000" font-family="sans-serif" font-size="11" lengthAdjust="spacingAndGlyphs" textLength="81" x="455" y="1068.0151">inputs : Data[]</text><ellipse cx="446" cy="1078.5117" fill="none" rx="3" ry="3" style="stroke: #038048; stroke-width: 1.0;"/><text fill="#000000" font-family="sans-serif" font-size="11" lengthAdjust="spacingAndGlyphs" textLength="132" x="455" y="1080.8198">parameter : Parameter</text><line style="stroke: #A80036; stroke-width: 1.5;" x1="436" x2="640" y1="1087.4141" y2="1087.4141"/><ellipse cx="446" cy="1099.3164" fill="#84BE84" rx="3" ry="3" style="stroke: #038048; stroke-width: 1.0;"/><text fill="#000000" font-family="sans-serif" font-size="11" lengthAdjust="spacingAndGlyphs" textLength="171" x="455" y="1101.6245">execute(inputs: Data[]): Data[]</text><!--class AbstractTransformer--><rect fill="#FEFECE" filter="url(#fs00jrv6ikh5n)" height="73.6094" id="AbstractTransformer" style="stroke: #A80036; stroke-width: 1.5;" width="200" x="159" y="1180.5"/><ellipse cx="191.55" cy="1196.5" fill="#ADD1B2" rx="11" ry="11" style="stroke: #A80036; stroke-width: 1.0;"/><path d="M193.8938,1192.1719 L194.0656,1192.25 C194.2844,1191.9375 194.4875,1191.8438 194.7844,1191.8438 C195.0813,1191.8438 195.3625,1191.9844 195.5188,1192.25 C195.6125,1192.4063 195.6281,1192.5313 195.6281,1192.9688 L195.6281,1194.3906 C195.6281,1194.8125 195.5969,1195 195.4875,1195.1563 C195.3156,1195.375 195.05,1195.5156 194.7844,1195.5156 C194.5656,1195.5156 194.3313,1195.4063 194.1906,1195.2656 C194.05,1195.1406 194.0188,1195.0156 193.9563,1194.6094 C193.8625,1194.2031 193.6906,1193.9844 193.2063,1193.7031 C192.7375,1193.4531 192.1281,1193.2969 191.55,1193.2969 C189.8156,1193.2969 188.5656,1194.6094 188.5656,1196.3906 L188.5656,1197.4844 C188.5656,1199.1875 189.8625,1200.2813 191.9094,1200.2813 C192.675,1200.2813 193.3625,1200.1563 193.7844,1199.8906 C193.9719,1199.7969 193.9719,1199.7969 194.425,1199.3125 C194.6125,1199.125 194.8156,1199.0469 195.0344,1199.0469 C195.5031,1199.0469 195.8938,1199.4375 195.8938,1199.8906 C195.8938,1200.2813 195.5656,1200.7344 194.9875,1201.1406 C194.2375,1201.6875 193.0813,1201.9844 191.8625,1201.9844 C188.9719,1201.9844 186.8625,1200.0938 186.8625,1197.5156 L186.8625,1196.3906 C186.8625,1193.6719 188.8625,1191.5938 191.4875,1191.5938 C192.3625,1191.5938 192.9563,1191.7344 193.8938,1192.1719 Z "/><text fill="#000000" font-family="sans-serif" font-size="12" lengthAdjust="spacingAndGlyphs" textLength="129" x="209.45" y="1200.6543">AbstractTransformer</text><line style="stroke: #A80036; stroke-width: 1.5;" x1="160" x2="358" y1="1212.5" y2="1212.5"/><line style="stroke: #A80036; stroke-width: 1.5;" x1="160" x2="358" y1="1220.5" y2="1220.5"/><ellipse cx="170" cy="1232.4023" fill="#84BE84" rx="3" ry="3" style="stroke: #038048; stroke-width: 1.0;"/><text fill="#000000" font-family="sans-serif" font-size="11" lengthAdjust="spacingAndGlyphs" textLength="171" x="179" y="1234.7104">execute(inputs: Data[]): Data[]</text><ellipse cx="170" cy="1245.207" fill="#84BE84" rx="3" ry="3" style="stroke: #038048; stroke-width: 1.0;"/><text fill="#000000" font-family="sans-serif" font-size="11" lengthAdjust="spacingAndGlyphs" textLength="174" x="179" y="1247.5151">_transform(text: string): string</text><!--class AbstractReader--><rect fill="#FEFECE" filter="url(#fs00jrv6ikh5n)" height="48" id="AbstractReader" style="stroke: #A80036; stroke-width: 1.5;" width="130" x="398" y="1193.5"/><ellipse cx="413" cy="1209.5" fill="#ADD1B2" rx="11" ry="11" style="stroke: #A80036; stroke-width: 1.0;"/><path d="M415.3438,1205.1719 L415.5156,1205.25 C415.7344,1204.9375 415.9375,1204.8438 416.2344,1204.8438 C416.5313,1204.8438 416.8125,1204.9844 416.9688,1205.25 C417.0625,1205.4063 417.0781,1205.5313 417.0781,1205.9688 L417.0781,1207.3906 C417.0781,1207.8125 417.0469,1208 416.9375,1208.1563 C416.7656,1208.375 416.5,1208.5156 416.2344,1208.5156 C416.0156,1208.5156 415.7813,1208.4063 415.6406,1208.2656 C415.5,1208.1406 415.4688,1208.0156 415.4063,1207.6094 C415.3125,1207.2031 415.1406,1206.9844 414.6563,1206.7031 C414.1875,1206.4531 413.5781,1206.2969 413,1206.2969 C411.2656,1206.2969 410.0156,1207.6094 410.0156,1209.3906 L410.0156,1210.4844 C410.0156,1212.1875 411.3125,1213.2813 413.3594,1213.2813 C414.125,1213.2813 414.8125,1213.1563 415.2344,1212.8906 C415.4219,1212.7969 415.4219,1212.7969 415.875,1212.3125 C416.0625,1212.125 416.2656,1212.0469 416.4844,1212.0469 C416.9531,1212.0469 417.3438,1212.4375 417.3438,1212.8906 C417.3438,1213.2813 417.0156,1213.7344 416.4375,1214.1406 C415.6875,1214.6875 414.5313,1214.9844 413.3125,1214.9844 C410.4219,1214.9844 408.3125,1213.0938 408.3125,1210.5156 L408.3125,1209.3906 C408.3125,1206.6719 410.3125,1204.5938 412.9375,1204.5938 C413.8125,1204.5938 414.4063,1204.7344 415.3438,1205.1719 Z "/><text fill="#000000" font-family="sans-serif" font-size="12" lengthAdjust="spacingAndGlyphs" textLength="98" x="427" y="1213.6543">AbstractReader</text><line style="stroke: #A80036; stroke-width: 1.5;" x1="399" x2="527" y1="1225.5" y2="1225.5"/><line style="stroke: #A80036; stroke-width: 1.5;" x1="399" x2="527" y1="1233.5" y2="1233.5"/><!--class FtpReader--><rect fill="#FEFECE" filter="url(#fs00jrv6ikh5n)" height="60.8047" id="FtpReader" style="stroke: #A80036; stroke-width: 1.5;" width="197" x="312.5" y="1346"/><ellipse cx="374.25" cy="1362" fill="#ADD1B2" rx="11" ry="11" style="stroke: #A80036; stroke-width: 1.0;"/><path d="M376.5938,1357.6719 L376.7656,1357.75 C376.9844,1357.4375 377.1875,1357.3438 377.4844,1357.3438 C377.7813,1357.3438 378.0625,1357.4844 378.2188,1357.75 C378.3125,1357.9063 378.3281,1358.0313 378.3281,1358.4688 L378.3281,1359.8906 C378.3281,1360.3125 378.2969,1360.5 378.1875,1360.6563 C378.0156,1360.875 377.75,1361.0156 377.4844,1361.0156 C377.2656,1361.0156 377.0313,1360.9063 376.8906,1360.7656 C376.75,1360.6406 376.7188,1360.5156 376.6563,1360.1094 C376.5625,1359.7031 376.3906,1359.4844 375.9063,1359.2031 C375.4375,1358.9531 374.8281,1358.7969 374.25,1358.7969 C372.5156,1358.7969 371.2656,1360.1094 371.2656,1361.8906 L371.2656,1362.9844 C371.2656,1364.6875 372.5625,1365.7813 374.6094,1365.7813 C375.375,1365.7813 376.0625,1365.6563 376.4844,1365.3906 C376.6719,1365.2969 376.6719,1365.2969 377.125,1364.8125 C377.3125,1364.625 377.5156,1364.5469 377.7344,1364.5469 C378.2031,1364.5469 378.5938,1364.9375 378.5938,1365.3906 C378.5938,1365.7813 378.2656,1366.2344 377.6875,1366.6406 C376.9375,1367.1875 375.7813,1367.4844 374.5625,1367.4844 C371.6719,1367.4844 369.5625,1365.5938 369.5625,1363.0156 L369.5625,1361.8906 C369.5625,1359.1719 371.5625,1357.0938 374.1875,1357.0938 C375.0625,1357.0938 375.6563,1357.2344 376.5938,1357.6719 Z "/><text fill="#000000" font-family="sans-serif" font-size="12" lengthAdjust="spacingAndGlyphs" textLength="65" x="394.75" y="1366.1543">FtpReader</text><line style="stroke: #A80036; stroke-width: 1.5;" x1="313.5" x2="508.5" y1="1378" y2="1378"/><line style="stroke: #A80036; stroke-width: 1.5;" x1="313.5" x2="508.5" y1="1386" y2="1386"/><ellipse cx="323.5" cy="1397.9023" fill="#84BE84" rx="3" ry="3" style="stroke: #038048; stroke-width: 1.0;"/><text fill="#000000" font-family="sans-serif" font-size="11" lengthAdjust="spacingAndGlyphs" textLength="171" x="332.5" y="1400.2104">execute(inputs: Data[]): Data[]</text><!--class ReaderParameter--><rect fill="#FEFECE" filter="url(#fs00jrv6ikh5n)" height="99.2188" id="ReaderParameter" style="stroke: #A80036; stroke-width: 1.5;" width="142" x="545" y="1327"/><ellipse cx="560" cy="1343" fill="#B4A7E5" rx="11" ry="11" style="stroke: #A80036; stroke-width: 1.0;"/><path d="M560.9531,1339.7813 L560.9531,1346.2969 L562.6719,1346.2969 C563.125,1346.2969 563.2656,1346.3281 563.4375,1346.4531 C563.6719,1346.625 563.7813,1346.875 563.7813,1347.1563 C563.7813,1347.7188 563.4219,1348 562.6719,1348 L557.5313,1348 C557.125,1348 556.9219,1347.9531 556.7656,1347.8281 C556.5469,1347.6719 556.4063,1347.4063 556.4063,1347.1563 C556.4063,1346.8594 556.5625,1346.5781 556.8125,1346.4219 C556.9688,1346.3125 557.0938,1346.2969 557.5313,1346.2969 L559.25,1346.2969 L559.25,1339.7813 L557.5313,1339.7813 C557.1094,1339.7813 556.9219,1339.75 556.7656,1339.6406 C556.5469,1339.4688 556.4063,1339.2188 556.4063,1338.9375 C556.4063,1338.6563 556.5625,1338.3594 556.8125,1338.2031 C556.9688,1338.1094 557.0938,1338.0938 557.5313,1338.0938 L562.6719,1338.0938 C563.125,1338.0938 563.2656,1338.125 563.4375,1338.2344 C563.6719,1338.4063 563.7813,1338.6719 563.7813,1338.9375 C563.7813,1339.2344 563.6406,1339.5156 563.375,1339.6719 C563.25,1339.75 563.0625,1339.7813 562.6719,1339.7813 Z "/><text fill="#000000" font-family="sans-serif" font-size="12" font-style="italic" lengthAdjust="spacingAndGlyphs" textLength="110" x="574" y="1347.1543">ReaderParameter</text><line style="stroke: #A80036; stroke-width: 1.5;" x1="546" x2="686" y1="1359" y2="1359"/><ellipse cx="556" cy="1370.9023" fill="none" rx="3" ry="3" style="stroke: #038048; stroke-width: 1.0;"/><text fill="#000000" font-family="sans-serif" font-size="11" lengthAdjust="spacingAndGlyphs" textLength="70" x="565" y="1373.2104">host : string</text><ellipse cx="556" cy="1383.707" fill="none" rx="3" ry="3" style="stroke: #038048; stroke-width: 1.0;"/><text fill="#000000" font-family="sans-serif" font-size="11" lengthAdjust="spacingAndGlyphs" textLength="103" x="565" y="1386.0151">username : string</text><ellipse cx="556" cy="1396.5117" fill="none" rx="3" ry="3" style="stroke: #038048; stroke-width: 1.0;"/><text fill="#000000" font-family="sans-serif" font-size="11" lengthAdjust="spacingAndGlyphs" textLength="101" x="565" y="1398.8198">password : string</text><ellipse cx="556" cy="1409.3164" fill="none" rx="3" ry="3" style="stroke: #038048; stroke-width: 1.0;"/><text fill="#000000" font-family="sans-serif" font-size="11" lengthAdjust="spacingAndGlyphs" textLength="79" x="565" y="1411.6245">port : number</text><line style="stroke: #A80036; stroke-width: 1.5;" x1="546" x2="686" y1="1418.2188" y2="1418.2188"/><!--class Parameter--><rect fill="#FEFECE" filter="url(#fs00jrv6ikh5n)" height="48" id="Parameter" style="stroke: #A80036; stroke-width: 1.5;" width="97" x="565.5" y="1193.5"/><ellipse cx="580.5" cy="1209.5" fill="#B4A7E5" rx="11" ry="11" style="stroke: #A80036; stroke-width: 1.0;"/><path d="M581.4531,1206.2813 L581.4531,1212.7969 L583.1719,1212.7969 C583.625,1212.7969 583.7656,1212.8281 583.9375,1212.9531 C584.1719,1213.125 584.2813,1213.375 584.2813,1213.6563 C584.2813,1214.2188 583.9219,1214.5 583.1719,1214.5 L578.0313,1214.5 C577.625,1214.5 577.4219,1214.4531 577.2656,1214.3281 C577.0469,1214.1719 576.9063,1213.9063 576.9063,1213.6563 C576.9063,1213.3594 577.0625,1213.0781 577.3125,1212.9219 C577.4688,1212.8125 577.5938,1212.7969 578.0313,1212.7969 L579.75,1212.7969 L579.75,1206.2813 L578.0313,1206.2813 C577.6094,1206.2813 577.4219,1206.25 577.2656,1206.1406 C577.0469,1205.9688 576.9063,1205.7188 576.9063,1205.4375 C576.9063,1205.1563 577.0625,1204.8594 577.3125,1204.7031 C577.4688,1204.6094 577.5938,1204.5938 578.0313,1204.5938 L583.1719,1204.5938 C583.625,1204.5938 583.7656,1204.625 583.9375,1204.7344 C584.1719,1204.9063 584.2813,1205.1719 584.2813,1205.4375 C584.2813,1205.7344 584.1406,1206.0156 583.875,1206.1719 C583.75,1206.25 583.5625,1206.2813 583.1719,1206.2813 Z "/><text fill="#000000" font-family="sans-serif" font-size="12" font-style="italic" lengthAdjust="spacingAndGlyphs" textLength="65" x="594.5" y="1213.6543">Parameter</text><line style="stroke: #A80036; stroke-width: 1.5;" x1="566.5" x2="661.5" y1="1225.5" y2="1225.5"/><line style="stroke: #A80036; stroke-width: 1.5;" x1="566.5" x2="661.5" y1="1233.5" y2="1233.5"/><!--class FtpReaderParameter--><rect fill="#FEFECE" filter="url(#fs00jrv6ikh5n)" height="73.6094" id="FtpReaderParameter" style="stroke: #A80036; stroke-width: 1.5;" width="162" x="499" y="1486"/><ellipse cx="514" cy="1502" fill="#B4A7E5" rx="11" ry="11" style="stroke: #A80036; stroke-width: 1.0;"/><path d="M514.9531,1498.7813 L514.9531,1505.2969 L516.6719,1505.2969 C517.125,1505.2969 517.2656,1505.3281 517.4375,1505.4531 C517.6719,1505.625 517.7813,1505.875 517.7813,1506.1563 C517.7813,1506.7188 517.4219,1507 516.6719,1507 L511.5313,1507 C511.125,1507 510.9219,1506.9531 510.7656,1506.8281 C510.5469,1506.6719 510.4063,1506.4063 510.4063,1506.1563 C510.4063,1505.8594 510.5625,1505.5781 510.8125,1505.4219 C510.9688,1505.3125 511.0938,1505.2969 511.5313,1505.2969 L513.25,1505.2969 L513.25,1498.7813 L511.5313,1498.7813 C511.1094,1498.7813 510.9219,1498.75 510.7656,1498.6406 C510.5469,1498.4688 510.4063,1498.2188 510.4063,1497.9375 C510.4063,1497.6563 510.5625,1497.3594 510.8125,1497.2031 C510.9688,1497.1094 511.0938,1497.0938 511.5313,1497.0938 L516.6719,1497.0938 C517.125,1497.0938 517.2656,1497.125 517.4375,1497.2344 C517.6719,1497.4063 517.7813,1497.6719 517.7813,1497.9375 C517.7813,1498.2344 517.6406,1498.5156 517.375,1498.6719 C517.25,1498.75 517.0625,1498.7813 516.6719,1498.7813 Z "/><text fill="#000000" font-family="sans-serif" font-size="12" font-style="italic" lengthAdjust="spacingAndGlyphs" textLength="130" x="528" y="1506.1543">FtpReaderParameter</text><line style="stroke: #A80036; stroke-width: 1.5;" x1="500" x2="660" y1="1518" y2="1518"/><ellipse cx="510" cy="1529.9023" fill="none" rx="3" ry="3" style="stroke: #038048; stroke-width: 1.0;"/><text fill="#000000" font-family="sans-serif" font-size="11" lengthAdjust="spacingAndGlyphs" textLength="109" x="519" y="1532.2104">sourcePath : string</text><ellipse cx="510" cy="1542.707" fill="none" rx="3" ry="3" style="stroke: #038048; stroke-width: 1.0;"/><text fill="#000000" font-family="sans-serif" font-size="11" lengthAdjust="spacingAndGlyphs" textLength="95" x="519" y="1545.0151">destPath : string</text><line style="stroke: #A80036; stroke-width: 1.5;" x1="500" x2="660" y1="1551.6094" y2="1551.6094"/><!--class UpperCaseTransformer--><rect fill="#FEFECE" filter="url(#fs00jrv6ikh5n)" height="60.8047" id="UpperCaseTransformer" style="stroke: #A80036; stroke-width: 1.5;" width="200" x="6" y="1346"/><ellipse cx="31.35" cy="1362" fill="#ADD1B2" rx="11" ry="11" style="stroke: #A80036; stroke-width: 1.0;"/><path d="M33.6938,1357.6719 L33.8656,1357.75 C34.0844,1357.4375 34.2875,1357.3438 34.5844,1357.3438 C34.8813,1357.3438 35.1625,1357.4844 35.3188,1357.75 C35.4125,1357.9063 35.4281,1358.0313 35.4281,1358.4688 L35.4281,1359.8906 C35.4281,1360.3125 35.3969,1360.5 35.2875,1360.6563 C35.1156,1360.875 34.85,1361.0156 34.5844,1361.0156 C34.3656,1361.0156 34.1313,1360.9063 33.9906,1360.7656 C33.85,1360.6406 33.8188,1360.5156 33.7563,1360.1094 C33.6625,1359.7031 33.4906,1359.4844 33.0063,1359.2031 C32.5375,1358.9531 31.9281,1358.7969 31.35,1358.7969 C29.6156,1358.7969 28.3656,1360.1094 28.3656,1361.8906 L28.3656,1362.9844 C28.3656,1364.6875 29.6625,1365.7813 31.7094,1365.7813 C32.475,1365.7813 33.1625,1365.6563 33.5844,1365.3906 C33.7719,1365.2969 33.7719,1365.2969 34.225,1364.8125 C34.4125,1364.625 34.6156,1364.5469 34.8344,1364.5469 C35.3031,1364.5469 35.6938,1364.9375 35.6938,1365.3906 C35.6938,1365.7813 35.3656,1366.2344 34.7875,1366.6406 C34.0375,1367.1875 32.8813,1367.4844 31.6625,1367.4844 C28.7719,1367.4844 26.6625,1365.5938 26.6625,1363.0156 L26.6625,1361.8906 C26.6625,1359.1719 28.6625,1357.0938 31.2875,1357.0938 C32.1625,1357.0938 32.7563,1357.2344 33.6938,1357.6719 Z "/><text fill="#000000" font-family="sans-serif" font-size="12" lengthAdjust="spacingAndGlyphs" textLength="145" x="47.65" y="1366.1543">UpperCaseTransformer</text><line style="stroke: #A80036; stroke-width: 1.5;" x1="7" x2="205" y1="1378" y2="1378"/><line style="stroke: #A80036; stroke-width: 1.5;" x1="7" x2="205" y1="1386" y2="1386"/><ellipse cx="17" cy="1397.9023" fill="#84BE84" rx="3" ry="3" style="stroke: #038048; stroke-width: 1.0;"/><text fill="#000000" font-family="sans-serif" font-size="11" lengthAdjust="spacingAndGlyphs" textLength="174" x="26" y="1400.2104">_transform(text: string): string</text><!--class HarmonizeTransformer--><rect fill="#FEFECE" filter="url(#fs00jrv6ikh5n)" height="73.6094" id="HarmonizeTransformer" style="stroke: #A80036; stroke-width: 1.5;" width="200" x="229" y="1486"/><ellipse cx="256.15" cy="1502" fill="#ADD1B2" rx="11" ry="11" style="stroke: #A80036; stroke-width: 1.0;"/><path d="M258.4938,1497.6719 L258.6656,1497.75 C258.8844,1497.4375 259.0875,1497.3438 259.3844,1497.3438 C259.6813,1497.3438 259.9625,1497.4844 260.1188,1497.75 C260.2125,1497.9063 260.2281,1498.0313 260.2281,1498.4688 L260.2281,1499.8906 C260.2281,1500.3125 260.1969,1500.5 260.0875,1500.6563 C259.9156,1500.875 259.65,1501.0156 259.3844,1501.0156 C259.1656,1501.0156 258.9313,1500.9063 258.7906,1500.7656 C258.65,1500.6406 258.6188,1500.5156 258.5563,1500.1094 C258.4625,1499.7031 258.2906,1499.4844 257.8063,1499.2031 C257.3375,1498.9531 256.7281,1498.7969 256.15,1498.7969 C254.4156,1498.7969 253.1656,1500.1094 253.1656,1501.8906 L253.1656,1502.9844 C253.1656,1504.6875 254.4625,1505.7813 256.5094,1505.7813 C257.275,1505.7813 257.9625,1505.6563 258.3844,1505.3906 C258.5719,1505.2969 258.5719,1505.2969 259.025,1504.8125 C259.2125,1504.625 259.4156,1504.5469 259.6344,1504.5469 C260.1031,1504.5469 260.4938,1504.9375 260.4938,1505.3906 C260.4938,1505.7813 260.1656,1506.2344 259.5875,1506.6406 C258.8375,1507.1875 257.6813,1507.4844 256.4625,1507.4844 C253.5719,1507.4844 251.4625,1505.5938 251.4625,1503.0156 L251.4625,1501.8906 C251.4625,1499.1719 253.4625,1497.0938 256.0875,1497.0938 C256.9625,1497.0938 257.5563,1497.2344 258.4938,1497.6719 Z "/><text fill="#000000" font-family="sans-serif" font-size="12" lengthAdjust="spacingAndGlyphs" textLength="141" x="272.85" y="1506.1543">HarmonizeTransformer</text><line style="stroke: #A80036; stroke-width: 1.5;" x1="230" x2="428" y1="1518" y2="1518"/><ellipse cx="240" cy="1529.9023" fill="none" rx="3" ry="3" style="stroke: #038048; stroke-width: 1.0;"/><text fill="#000000" font-family="sans-serif" font-size="11" lengthAdjust="spacingAndGlyphs" textLength="88" x="249" y="1532.2104">dict : Dictionary</text><line style="stroke: #A80036; stroke-width: 1.5;" x1="230" x2="428" y1="1538.8047" y2="1538.8047"/><ellipse cx="240" cy="1550.707" fill="#84BE84" rx="3" ry="3" style="stroke: #038048; stroke-width: 1.0;"/><text fill="#000000" font-family="sans-serif" font-size="11" lengthAdjust="spacingAndGlyphs" textLength="174" x="249" y="1553.0151">_transform(text: string): string</text><!--class ProcessorAttributes--><rect fill="#FEFECE" filter="url(#fs00jrv6ikh5n)" height="99.2188" id="ProcessorAttributes" style="stroke: #A80036; stroke-width: 1.5;" width="153" x="697.5" y="1168"/><ellipse cx="712.5" cy="1184" fill="#B4A7E5" rx="11" ry="11" style="stroke: #A80036; stroke-width: 1.0;"/><path d="M713.4531,1180.7813 L713.4531,1187.2969 L715.1719,1187.2969 C715.625,1187.2969 715.7656,1187.3281 715.9375,1187.4531 C716.1719,1187.625 716.2813,1187.875 716.2813,1188.1563 C716.2813,1188.7188 715.9219,1189 715.1719,1189 L710.0313,1189 C709.625,1189 709.4219,1188.9531 709.2656,1188.8281 C709.0469,1188.6719 708.9063,1188.4063 708.9063,1188.1563 C708.9063,1187.8594 709.0625,1187.5781 709.3125,1187.4219 C709.4688,1187.3125 709.5938,1187.2969 710.0313,1187.2969 L711.75,1187.2969 L711.75,1180.7813 L710.0313,1180.7813 C709.6094,1180.7813 709.4219,1180.75 709.2656,1180.6406 C709.0469,1180.4688 708.9063,1180.2188 708.9063,1179.9375 C708.9063,1179.6563 709.0625,1179.3594 709.3125,1179.2031 C709.4688,1179.1094 709.5938,1179.0938 710.0313,1179.0938 L715.1719,1179.0938 C715.625,1179.0938 715.7656,1179.125 715.9375,1179.2344 C716.1719,1179.4063 716.2813,1179.6719 716.2813,1179.9375 C716.2813,1180.2344 716.1406,1180.5156 715.875,1180.6719 C715.75,1180.75 715.5625,1180.7813 715.1719,1180.7813 Z "/><text fill="#000000" font-family="sans-serif" font-size="12" font-style="italic" lengthAdjust="spacingAndGlyphs" textLength="121" x="726.5" y="1188.1543">ProcessorAttributes</text><line style="stroke: #A80036; stroke-width: 1.5;" x1="698.5" x2="849.5" y1="1200" y2="1200"/><ellipse cx="708.5" cy="1211.9023" fill="none" rx="3" ry="3" style="stroke: #038048; stroke-width: 1.0;"/><text fill="#000000" font-family="sans-serif" font-size="11" lengthAdjust="spacingAndGlyphs" textLength="115" x="717.5" y="1214.2104">maxInputs : number</text><ellipse cx="708.5" cy="1224.707" fill="none" rx="3" ry="3" style="stroke: #038048; stroke-width: 1.0;"/><text fill="#000000" font-family="sans-serif" font-size="11" lengthAdjust="spacingAndGlyphs" textLength="112" x="717.5" y="1227.0151">minInputs : number</text><ellipse cx="708.5" cy="1237.5117" fill="none" rx="3" ry="3" style="stroke: #038048; stroke-width: 1.0;"/><text fill="#000000" font-family="sans-serif" font-size="11" lengthAdjust="spacingAndGlyphs" textLength="125" x="717.5" y="1239.8198">maxOutputs : number</text><ellipse cx="708.5" cy="1250.3164" fill="none" rx="3" ry="3" style="stroke: #038048; stroke-width: 1.0;"/><text fill="#000000" font-family="sans-serif" font-size="11" lengthAdjust="spacingAndGlyphs" textLength="122" x="717.5" y="1252.6245">minOutputs : number</text><line style="stroke: #A80036; stroke-width: 1.5;" x1="698.5" x2="849.5" y1="1259.2188" y2="1259.2188"/><!--class NodeRelationship--><rect fill="#FEFECE" filter="url(#fs00jrv6ikh5n)" height="99.2188" id="NodeRelationship" style="stroke: #A80036; stroke-width: 1.5;" width="141" x="804.5" y="276"/><ellipse cx="819.5" cy="292" fill="#B4A7E5" rx="11" ry="11" style="stroke: #A80036; stroke-width: 1.0;"/><path d="M820.4531,288.7813 L820.4531,295.2969 L822.1719,295.2969 C822.625,295.2969 822.7656,295.3281 822.9375,295.4531 C823.1719,295.625 823.2813,295.875 823.2813,296.1563 C823.2813,296.7188 822.9219,297 822.1719,297 L817.0313,297 C816.625,297 816.4219,296.9531 816.2656,296.8281 C816.0469,296.6719 815.9063,296.4063 815.9063,296.1563 C815.9063,295.8594 816.0625,295.5781 816.3125,295.4219 C816.4688,295.3125 816.5938,295.2969 817.0313,295.2969 L818.75,295.2969 L818.75,288.7813 L817.0313,288.7813 C816.6094,288.7813 816.4219,288.75 816.2656,288.6406 C816.0469,288.4688 815.9063,288.2188 815.9063,287.9375 C815.9063,287.6563 816.0625,287.3594 816.3125,287.2031 C816.4688,287.1094 816.5938,287.0938 817.0313,287.0938 L822.1719,287.0938 C822.625,287.0938 822.7656,287.125 822.9375,287.2344 C823.1719,287.4063 823.2813,287.6719 823.2813,287.9375 C823.2813,288.2344 823.1406,288.5156 822.875,288.6719 C822.75,288.75 822.5625,288.7813 822.1719,288.7813 Z "/><text fill="#000000" font-family="sans-serif" font-size="12" font-style="italic" lengthAdjust="spacingAndGlyphs" textLength="109" x="833.5" y="296.1543">NodeRelationship</text><line style="stroke: #A80036; stroke-width: 1.5;" x1="805.5" x2="944.5" y1="308" y2="308"/><ellipse cx="815.5" cy="319.9023" fill="none" rx="3" ry="3" style="stroke: #038048; stroke-width: 1.0;"/><text fill="#000000" font-family="sans-serif" font-size="11" lengthAdjust="spacingAndGlyphs" textLength="66" x="824.5" y="322.2104">id : number</text><ellipse cx="815.5" cy="332.707" fill="none" rx="3" ry="3" style="stroke: #038048; stroke-width: 1.0;"/><text fill="#000000" font-family="sans-serif" font-size="11" lengthAdjust="spacingAndGlyphs" textLength="66" x="824.5" y="335.0151">title : string</text><ellipse cx="815.5" cy="345.5117" fill="none" rx="3" ry="3" style="stroke: #038048; stroke-width: 1.0;"/><text fill="#000000" font-family="sans-serif" font-size="11" lengthAdjust="spacingAndGlyphs" textLength="109" x="824.5" y="347.8198">sourceNode : Node</text><ellipse cx="815.5" cy="358.3164" fill="none" rx="3" ry="3" style="stroke: #038048; stroke-width: 1.0;"/><text fill="#000000" font-family="sans-serif" font-size="11" lengthAdjust="spacingAndGlyphs" textLength="95" x="824.5" y="360.6245">destNode : Node</text><line style="stroke: #A80036; stroke-width: 1.5;" x1="805.5" x2="944.5" y1="367.2188" y2="367.2188"/><!--class TransformerParameter--><rect fill="#FEFECE" filter="url(#fs00jrv6ikh5n)" height="73.6094" id="TransformerParameter" style="stroke: #A80036; stroke-width: 1.5;" width="172" x="722" y="1339.5"/><ellipse cx="737" cy="1355.5" fill="#B4A7E5" rx="11" ry="11" style="stroke: #A80036; stroke-width: 1.0;"/><path d="M737.9531,1352.2813 L737.9531,1358.7969 L739.6719,1358.7969 C740.125,1358.7969 740.2656,1358.8281 740.4375,1358.9531 C740.6719,1359.125 740.7813,1359.375 740.7813,1359.6563 C740.7813,1360.2188 740.4219,1360.5 739.6719,1360.5 L734.5313,1360.5 C734.125,1360.5 733.9219,1360.4531 733.7656,1360.3281 C733.5469,1360.1719 733.4063,1359.9063 733.4063,1359.6563 C733.4063,1359.3594 733.5625,1359.0781 733.8125,1358.9219 C733.9688,1358.8125 734.0938,1358.7969 734.5313,1358.7969 L736.25,1358.7969 L736.25,1352.2813 L734.5313,1352.2813 C734.1094,1352.2813 733.9219,1352.25 733.7656,1352.1406 C733.5469,1351.9688 733.4063,1351.7188 733.4063,1351.4375 C733.4063,1351.1563 733.5625,1350.8594 733.8125,1350.7031 C733.9688,1350.6094 734.0938,1350.5938 734.5313,1350.5938 L739.6719,1350.5938 C740.125,1350.5938 740.2656,1350.625 740.4375,1350.7344 C740.6719,1350.9063 740.7813,1351.1719 740.7813,1351.4375 C740.7813,1351.7344 740.6406,1352.0156 740.375,1352.1719 C740.25,1352.25 740.0625,1352.2813 739.6719,1352.2813 Z "/><text fill="#000000" font-family="sans-serif" font-size="12" font-style="italic" lengthAdjust="spacingAndGlyphs" textLength="140" x="751" y="1359.6543">TransformerParameter</text><line style="stroke: #A80036; stroke-width: 1.5;" x1="723" x2="893" y1="1371.5" y2="1371.5"/><ellipse cx="733" cy="1383.4023" fill="none" rx="3" ry="3" style="stroke: #038048; stroke-width: 1.0;"/><text fill="#000000" font-family="sans-serif" font-size="11" lengthAdjust="spacingAndGlyphs" textLength="110" x="742" y="1385.7104">sourceField : string</text><ellipse cx="733" cy="1396.207" fill="none" rx="3" ry="3" style="stroke: #038048; stroke-width: 1.0;"/><text fill="#000000" font-family="sans-serif" font-size="11" lengthAdjust="spacingAndGlyphs" textLength="96" x="742" y="1398.5151">destField : string</text><line style="stroke: #A80036; stroke-width: 1.5;" x1="723" x2="893" y1="1405.1094" y2="1405.1094"/><!--class LookupParameter--><rect fill="#FEFECE" filter="url(#fs00jrv6ikh5n)" height="60.8047" id="LookupParameter" style="stroke: #A80036; stroke-width: 1.5;" width="143" x="696.5" y="1492.5"/><ellipse cx="711.5" cy="1508.5" fill="#B4A7E5" rx="11" ry="11" style="stroke: #A80036; stroke-width: 1.0;"/><path d="M712.4531,1505.2813 L712.4531,1511.7969 L714.1719,1511.7969 C714.625,1511.7969 714.7656,1511.8281 714.9375,1511.9531 C715.1719,1512.125 715.2813,1512.375 715.2813,1512.6563 C715.2813,1513.2188 714.9219,1513.5 714.1719,1513.5 L709.0313,1513.5 C708.625,1513.5 708.4219,1513.4531 708.2656,1513.3281 C708.0469,1513.1719 707.9063,1512.9063 707.9063,1512.6563 C707.9063,1512.3594 708.0625,1512.0781 708.3125,1511.9219 C708.4688,1511.8125 708.5938,1511.7969 709.0313,1511.7969 L710.75,1511.7969 L710.75,1505.2813 L709.0313,1505.2813 C708.6094,1505.2813 708.4219,1505.25 708.2656,1505.1406 C708.0469,1504.9688 707.9063,1504.7188 707.9063,1504.4375 C707.9063,1504.1563 708.0625,1503.8594 708.3125,1503.7031 C708.4688,1503.6094 708.5938,1503.5938 709.0313,1503.5938 L714.1719,1503.5938 C714.625,1503.5938 714.7656,1503.625 714.9375,1503.7344 C715.1719,1503.9063 715.2813,1504.1719 715.2813,1504.4375 C715.2813,1504.7344 715.1406,1505.0156 714.875,1505.1719 C714.75,1505.25 714.5625,1505.2813 714.1719,1505.2813 Z "/><text fill="#000000" font-family="sans-serif" font-size="12" font-style="italic" lengthAdjust="spacingAndGlyphs" textLength="111" x="725.5" y="1512.6543">LookupParameter</text><line style="stroke: #A80036; stroke-width: 1.5;" x1="697.5" x2="838.5" y1="1524.5" y2="1524.5"/><ellipse cx="707.5" cy="1536.4023" fill="none" rx="3" ry="3" style="stroke: #038048; stroke-width: 1.0;"/><text fill="#000000" font-family="sans-serif" font-size="11" lengthAdjust="spacingAndGlyphs" textLength="113" x="716.5" y="1538.7104">lookupTable : string</text><line style="stroke: #A80036; stroke-width: 1.5;" x1="697.5" x2="838.5" y1="1545.3047" y2="1545.3047"/><!--class DictionaryTransformerParameter--><rect fill="#FEFECE" filter="url(#fs00jrv6ikh5n)" height="60.8047" id="DictionaryTransformerParameter" style="stroke: #A80036; stroke-width: 1.5;" width="235" x="874.5" y="1492.5"/><ellipse cx="889.5" cy="1508.5" fill="#B4A7E5" rx="11" ry="11" style="stroke: #A80036; stroke-width: 1.0;"/><path d="M890.4531,1505.2813 L890.4531,1511.7969 L892.1719,1511.7969 C892.625,1511.7969 892.7656,1511.8281 892.9375,1511.9531 C893.1719,1512.125 893.2813,1512.375 893.2813,1512.6563 C893.2813,1513.2188 892.9219,1513.5 892.1719,1513.5 L887.0313,1513.5 C886.625,1513.5 886.4219,1513.4531 886.2656,1513.3281 C886.0469,1513.1719 885.9063,1512.9063 885.9063,1512.6563 C885.9063,1512.3594 886.0625,1512.0781 886.3125,1511.9219 C886.4688,1511.8125 886.5938,1511.7969 887.0313,1511.7969 L888.75,1511.7969 L888.75,1505.2813 L887.0313,1505.2813 C886.6094,1505.2813 886.4219,1505.25 886.2656,1505.1406 C886.0469,1504.9688 885.9063,1504.7188 885.9063,1504.4375 C885.9063,1504.1563 886.0625,1503.8594 886.3125,1503.7031 C886.4688,1503.6094 886.5938,1503.5938 887.0313,1503.5938 L892.1719,1503.5938 C892.625,1503.5938 892.7656,1503.625 892.9375,1503.7344 C893.1719,1503.9063 893.2813,1504.1719 893.2813,1504.4375 C893.2813,1504.7344 893.1406,1505.0156 892.875,1505.1719 C892.75,1505.25 892.5625,1505.2813 892.1719,1505.2813 Z "/><text fill="#000000" font-family="sans-serif" font-size="12" font-style="italic" lengthAdjust="spacingAndGlyphs" textLength="203" x="903.5" y="1512.6543">DictionaryTransformerParameter</text><line style="stroke: #A80036; stroke-width: 1.5;" x1="875.5" x2="1108.5" y1="1524.5" y2="1524.5"/><ellipse cx="885.5" cy="1536.4023" fill="none" rx="3" ry="3" style="stroke: #038048; stroke-width: 1.0;"/><text fill="#000000" font-family="sans-serif" font-size="11" lengthAdjust="spacingAndGlyphs" textLength="88" x="894.5" y="1538.7104">dict : Dictionary</text><line style="stroke: #A80036; stroke-width: 1.5;" x1="875.5" x2="1108.5" y1="1545.3047" y2="1545.3047"/><!--class Dictionary--><rect fill="#FEFECE" filter="url(#fs00jrv6ikh5n)" height="60.8047" id="Dictionary" style="stroke: #A80036; stroke-width: 1.5;" width="171" x="574.5" y="1620"/><ellipse cx="624.25" cy="1636" fill="#B4A7E5" rx="11" ry="11" style="stroke: #A80036; stroke-width: 1.0;"/><path d="M625.2031,1632.7813 L625.2031,1639.2969 L626.9219,1639.2969 C627.375,1639.2969 627.5156,1639.3281 627.6875,1639.4531 C627.9219,1639.625 628.0313,1639.875 628.0313,1640.1563 C628.0313,1640.7188 627.6719,1641 626.9219,1641 L621.7813,1641 C621.375,1641 621.1719,1640.9531 621.0156,1640.8281 C620.7969,1640.6719 620.6563,1640.4063 620.6563,1640.1563 C620.6563,1639.8594 620.8125,1639.5781 621.0625,1639.4219 C621.2188,1639.3125 621.3438,1639.2969 621.7813,1639.2969 L623.5,1639.2969 L623.5,1632.7813 L621.7813,1632.7813 C621.3594,1632.7813 621.1719,1632.75 621.0156,1632.6406 C620.7969,1632.4688 620.6563,1632.2188 620.6563,1631.9375 C620.6563,1631.6563 620.8125,1631.3594 621.0625,1631.2031 C621.2188,1631.1094 621.3438,1631.0938 621.7813,1631.0938 L626.9219,1631.0938 C627.375,1631.0938 627.5156,1631.125 627.6875,1631.2344 C627.9219,1631.4063 628.0313,1631.6719 628.0313,1631.9375 C628.0313,1632.2344 627.8906,1632.5156 627.625,1632.6719 C627.5,1632.75 627.3125,1632.7813 626.9219,1632.7813 Z "/><text fill="#000000" font-family="sans-serif" font-size="12" font-style="italic" lengthAdjust="spacingAndGlyphs" textLength="63" x="644.75" y="1640.1543">Dictionary</text><line style="stroke: #A80036; stroke-width: 1.5;" x1="575.5" x2="744.5" y1="1652" y2="1652"/><ellipse cx="585.5" cy="1663.9023" fill="none" rx="3" ry="3" style="stroke: #038048; stroke-width: 1.0;"/><text fill="#000000" font-family="sans-serif" font-size="11" lengthAdjust="spacingAndGlyphs" textLength="145" x="594.5" y="1666.2104">entries : DictionaryEntry[]</text><line style="stroke: #A80036; stroke-width: 1.5;" x1="575.5" x2="744.5" y1="1672.8047" y2="1672.8047"/><!--class DictionaryEntry--><rect fill="#FEFECE" filter="url(#fs00jrv6ikh5n)" height="86.4141" id="DictionaryEntry" style="stroke: #A80036; stroke-width: 1.5;" width="195" x="963.5" y="46.5"/><ellipse cx="1008.75" cy="62.5" fill="#B4A7E5" rx="11" ry="11" style="stroke: #A80036; stroke-width: 1.0;"/><path d="M1009.7031,59.2813 L1009.7031,65.7969 L1011.4219,65.7969 C1011.875,65.7969 1012.0156,65.8281 1012.1875,65.9531 C1012.4219,66.125 1012.5313,66.375 1012.5313,66.6563 C1012.5313,67.2188 1012.1719,67.5 1011.4219,67.5 L1006.2813,67.5 C1005.875,67.5 1005.6719,67.4531 1005.5156,67.3281 C1005.2969,67.1719 1005.1563,66.9063 1005.1563,66.6563 C1005.1563,66.3594 1005.3125,66.0781 1005.5625,65.9219 C1005.7188,65.8125 1005.8438,65.7969 1006.2813,65.7969 L1008,65.7969 L1008,59.2813 L1006.2813,59.2813 C1005.8594,59.2813 1005.6719,59.25 1005.5156,59.1406 C1005.2969,58.9688 1005.1563,58.7188 1005.1563,58.4375 C1005.1563,58.1563 1005.3125,57.8594 1005.5625,57.7031 C1005.7188,57.6094 1005.8438,57.5938 1006.2813,57.5938 L1011.4219,57.5938 C1011.875,57.5938 1012.0156,57.625 1012.1875,57.7344 C1012.4219,57.9063 1012.5313,58.1719 1012.5313,58.4375 C1012.5313,58.7344 1012.3906,59.0156 1012.125,59.1719 C1012,59.25 1011.8125,59.2813 1011.4219,59.2813 Z "/><text fill="#000000" font-family="sans-serif" font-size="12" font-style="italic" lengthAdjust="spacingAndGlyphs" textLength="96" x="1029.25" y="66.6543">DictionaryEntry</text><line style="stroke: #A80036; stroke-width: 1.5;" x1="964.5" x2="1157.5" y1="78.5" y2="78.5"/><ellipse cx="974.5" cy="90.4023" fill="none" rx="3" ry="3" style="stroke: #038048; stroke-width: 1.0;"/><text fill="#000000" font-family="sans-serif" font-size="11" lengthAdjust="spacingAndGlyphs" textLength="71" x="983.5" y="92.7104">key1 : string</text><ellipse cx="974.5" cy="103.207" fill="none" rx="3" ry="3" style="stroke: #038048; stroke-width: 1.0;"/><text fill="#000000" font-family="sans-serif" font-size="11" lengthAdjust="spacingAndGlyphs" textLength="71" x="983.5" y="105.5151">key2 : string</text><ellipse cx="974.5" cy="116.0117" fill="none" rx="3" ry="3" style="stroke: #038048; stroke-width: 1.0;"/><text fill="#000000" font-family="sans-serif" font-size="11" lengthAdjust="spacingAndGlyphs" textLength="169" x="983.5" y="118.3198">method : TextReplacerMethod</text><line style="stroke: #A80036; stroke-width: 1.5;" x1="964.5" x2="1157.5" y1="124.9141" y2="124.9141"/><!--class Data--><rect fill="#FEFECE" filter="url(#fs00jrv6ikh5n)" height="73.6094" id="Data" style="stroke: #A80036; stroke-width: 1.5;" width="87" x="1193.5" y="52.5"/><ellipse cx="1219.75" cy="68.5" fill="#B4A7E5" rx="11" ry="11" style="stroke: #A80036; stroke-width: 1.0;"/><path d="M1220.7031,65.2813 L1220.7031,71.7969 L1222.4219,71.7969 C1222.875,71.7969 1223.0156,71.8281 1223.1875,71.9531 C1223.4219,72.125 1223.5313,72.375 1223.5313,72.6563 C1223.5313,73.2188 1223.1719,73.5 1222.4219,73.5 L1217.2813,73.5 C1216.875,73.5 1216.6719,73.4531 1216.5156,73.3281 C1216.2969,73.1719 1216.1563,72.9063 1216.1563,72.6563 C1216.1563,72.3594 1216.3125,72.0781 1216.5625,71.9219 C1216.7188,71.8125 1216.8438,71.7969 1217.2813,71.7969 L1219,71.7969 L1219,65.2813 L1217.2813,65.2813 C1216.8594,65.2813 1216.6719,65.25 1216.5156,65.1406 C1216.2969,64.9688 1216.1563,64.7188 1216.1563,64.4375 C1216.1563,64.1563 1216.3125,63.8594 1216.5625,63.7031 C1216.7188,63.6094 1216.8438,63.5938 1217.2813,63.5938 L1222.4219,63.5938 C1222.875,63.5938 1223.0156,63.625 1223.1875,63.7344 C1223.4219,63.9063 1223.5313,64.1719 1223.5313,64.4375 C1223.5313,64.7344 1223.3906,65.0156 1223.125,65.1719 C1223,65.25 1222.8125,65.2813 1222.4219,65.2813 Z "/><text fill="#000000" font-family="sans-serif" font-size="12" font-style="italic" lengthAdjust="spacingAndGlyphs" textLength="30" x="1236.25" y="72.6543">Data</text><line style="stroke: #A80036; stroke-width: 1.5;" x1="1194.5" x2="1279.5" y1="84.5" y2="84.5"/><ellipse cx="1204.5" cy="96.4023" fill="none" rx="3" ry="3" style="stroke: #038048; stroke-width: 1.0;"/><text fill="#000000" font-family="sans-serif" font-size="11" lengthAdjust="spacingAndGlyphs" textLength="60" x="1213.5" y="98.7104">base : any</text><ellipse cx="1204.5" cy="109.207" fill="none" rx="3" ry="3" style="stroke: #038048; stroke-width: 1.0;"/><text fill="#000000" font-family="sans-serif" font-size="11" lengthAdjust="spacingAndGlyphs" textLength="61" x="1213.5" y="111.5151">meta : any</text><line style="stroke: #A80036; stroke-width: 1.5;" x1="1194.5" x2="1279.5" y1="118.1094" y2="118.1094"/><!--class Pipeline--><rect fill="#FEFECE" filter="url(#fs00jrv6ikh5n)" height="73.6094" id="Pipeline" style="stroke: #A80036; stroke-width: 1.5;" width="299" x="1315.5" y="52.5"/><ellipse cx="1436.75" cy="68.5" fill="#B4A7E5" rx="11" ry="11" style="stroke: #A80036; stroke-width: 1.0;"/><path d="M1437.7031,65.2813 L1437.7031,71.7969 L1439.4219,71.7969 C1439.875,71.7969 1440.0156,71.8281 1440.1875,71.9531 C1440.4219,72.125 1440.5313,72.375 1440.5313,72.6563 C1440.5313,73.2188 1440.1719,73.5 1439.4219,73.5 L1434.2813,73.5 C1433.875,73.5 1433.6719,73.4531 1433.5156,73.3281 C1433.2969,73.1719 1433.1563,72.9063 1433.1563,72.6563 C1433.1563,72.3594 1433.3125,72.0781 1433.5625,71.9219 C1433.7188,71.8125 1433.8438,71.7969 1434.2813,71.7969 L1436,71.7969 L1436,65.2813 L1434.2813,65.2813 C1433.8594,65.2813 1433.6719,65.25 1433.5156,65.1406 C1433.2969,64.9688 1433.1563,64.7188 1433.1563,64.4375 C1433.1563,64.1563 1433.3125,63.8594 1433.5625,63.7031 C1433.7188,63.6094 1433.8438,63.5938 1434.2813,63.5938 L1439.4219,63.5938 C1439.875,63.5938 1440.0156,63.625 1440.1875,63.7344 C1440.4219,63.9063 1440.5313,64.1719 1440.5313,64.4375 C1440.5313,64.7344 1440.3906,65.0156 1440.125,65.1719 C1440,65.25 1439.8125,65.2813 1439.4219,65.2813 Z "/><text fill="#000000" font-family="sans-serif" font-size="12" font-style="italic" lengthAdjust="spacingAndGlyphs" textLength="48" x="1457.25" y="72.6543">Pipeline</text><line style="stroke: #A80036; stroke-width: 1.5;" x1="1316.5" x2="1613.5" y1="84.5" y2="84.5"/><line style="stroke: #A80036; stroke-width: 1.5;" x1="1316.5" x2="1613.5" y1="92.5" y2="92.5"/><ellipse cx="1326.5" cy="104.4023" fill="#84BE84" rx="3" ry="3" style="stroke: #038048; stroke-width: 1.0;"/><text fill="#000000" font-family="sans-serif" font-size="11" lengthAdjust="spacingAndGlyphs" textLength="251" x="1335.5" y="106.7104">addWorkspace(workspace: Workspace): void</text><ellipse cx="1326.5" cy="117.207" fill="#84BE84" rx="3" ry="3" style="stroke: #038048; stroke-width: 1.0;"/><text fill="#000000" font-family="sans-serif" font-size="11" lengthAdjust="spacingAndGlyphs" textLength="273" x="1335.5" y="119.5151">removeWorkspace(workspace: Workspace): void</text><!--class StartablePipeline--><rect fill="#FEFECE" filter="url(#fs00jrv6ikh5n)" height="60.8047" id="StartablePipeline" style="stroke: #A80036; stroke-width: 1.5;" width="138" x="1650" y="59"/><ellipse cx="1665" cy="75" fill="#B4A7E5" rx="11" ry="11" style="stroke: #A80036; stroke-width: 1.0;"/><path d="M1665.9531,71.7813 L1665.9531,78.2969 L1667.6719,78.2969 C1668.125,78.2969 1668.2656,78.3281 1668.4375,78.4531 C1668.6719,78.625 1668.7813,78.875 1668.7813,79.1563 C1668.7813,79.7188 1668.4219,80 1667.6719,80 L1662.5313,80 C1662.125,80 1661.9219,79.9531 1661.7656,79.8281 C1661.5469,79.6719 1661.4063,79.4063 1661.4063,79.1563 C1661.4063,78.8594 1661.5625,78.5781 1661.8125,78.4219 C1661.9688,78.3125 1662.0938,78.2969 1662.5313,78.2969 L1664.25,78.2969 L1664.25,71.7813 L1662.5313,71.7813 C1662.1094,71.7813 1661.9219,71.75 1661.7656,71.6406 C1661.5469,71.4688 1661.4063,71.2188 1661.4063,70.9375 C1661.4063,70.6563 1661.5625,70.3594 1661.8125,70.2031 C1661.9688,70.1094 1662.0938,70.0938 1662.5313,70.0938 L1667.6719,70.0938 C1668.125,70.0938 1668.2656,70.125 1668.4375,70.2344 C1668.6719,70.4063 1668.7813,70.6719 1668.7813,70.9375 C1668.7813,71.2344 1668.6406,71.5156 1668.375,71.6719 C1668.25,71.75 1668.0625,71.7813 1667.6719,71.7813 Z "/><text fill="#000000" font-family="sans-serif" font-size="12" font-style="italic" lengthAdjust="spacingAndGlyphs" textLength="106" x="1679" y="79.1543">StartablePipeline</text><line style="stroke: #A80036; stroke-width: 1.5;" x1="1651" x2="1787" y1="91" y2="91"/><line style="stroke: #A80036; stroke-width: 1.5;" x1="1651" x2="1787" y1="99" y2="99"/><ellipse cx="1661" cy="110.9023" fill="#84BE84" rx="3" ry="3" style="stroke: #038048; stroke-width: 1.0;"/><text fill="#000000" font-family="sans-serif" font-size="11" lengthAdjust="spacingAndGlyphs" textLength="66" x="1670" y="113.2104">start(): void</text><!--class SchedulablePipeline--><rect fill="#FEFECE" filter="url(#fs00jrv6ikh5n)" height="60.8047" id="SchedulablePipeline" style="stroke: #A80036; stroke-width: 1.5;" width="182" x="1823" y="59"/><ellipse cx="1849.25" cy="75" fill="#B4A7E5" rx="11" ry="11" style="stroke: #A80036; stroke-width: 1.0;"/><path d="M1850.2031,71.7813 L1850.2031,78.2969 L1851.9219,78.2969 C1852.375,78.2969 1852.5156,78.3281 1852.6875,78.4531 C1852.9219,78.625 1853.0313,78.875 1853.0313,79.1563 C1853.0313,79.7188 1852.6719,80 1851.9219,80 L1846.7813,80 C1846.375,80 1846.1719,79.9531 1846.0156,79.8281 C1845.7969,79.6719 1845.6563,79.4063 1845.6563,79.1563 C1845.6563,78.8594 1845.8125,78.5781 1846.0625,78.4219 C1846.2188,78.3125 1846.3438,78.2969 1846.7813,78.2969 L1848.5,78.2969 L1848.5,71.7813 L1846.7813,71.7813 C1846.3594,71.7813 1846.1719,71.75 1846.0156,71.6406 C1845.7969,71.4688 1845.6563,71.2188 1845.6563,70.9375 C1845.6563,70.6563 1845.8125,70.3594 1846.0625,70.2031 C1846.2188,70.1094 1846.3438,70.0938 1846.7813,70.0938 L1851.9219,70.0938 C1852.375,70.0938 1852.5156,70.125 1852.6875,70.2344 C1852.9219,70.4063 1853.0313,70.6719 1853.0313,70.9375 C1853.0313,71.2344 1852.8906,71.5156 1852.625,71.6719 C1852.5,71.75 1852.3125,71.7813 1851.9219,71.7813 Z "/><text fill="#000000" font-family="sans-serif" font-size="12" font-style="italic" lengthAdjust="spacingAndGlyphs" textLength="125" x="1865.75" y="79.1543">SchedulablePipeline</text><line style="stroke: #A80036; stroke-width: 1.5;" x1="1824" x2="2004" y1="91" y2="91"/><line style="stroke: #A80036; stroke-width: 1.5;" x1="1824" x2="2004" y1="99" y2="99"/><ellipse cx="1834" cy="110.9023" fill="#84BE84" rx="3" ry="3" style="stroke: #038048; stroke-width: 1.0;"/><text fill="#000000" font-family="sans-serif" font-size="11" lengthAdjust="spacingAndGlyphs" textLength="156" x="1843" y="113.2104">schedule(cron: string): void</text><!--class BasicPipeline--><rect fill="#FEFECE" filter="url(#fs00jrv6ikh5n)" height="112.0234" id="BasicPipeline" style="stroke: #A80036; stroke-width: 1.5;" width="299" x="1569.5" y="269.5"/><ellipse cx="1673.75" cy="285.5" fill="#ADD1B2" rx="11" ry="11" style="stroke: #A80036; stroke-width: 1.0;"/><path d="M1676.0938,281.1719 L1676.2656,281.25 C1676.4844,280.9375 1676.6875,280.8438 1676.9844,280.8438 C1677.2813,280.8438 1677.5625,280.9844 1677.7188,281.25 C1677.8125,281.4063 1677.8281,281.5313 1677.8281,281.9688 L1677.8281,283.3906 C1677.8281,283.8125 1677.7969,284 1677.6875,284.1563 C1677.5156,284.375 1677.25,284.5156 1676.9844,284.5156 C1676.7656,284.5156 1676.5313,284.4063 1676.3906,284.2656 C1676.25,284.1406 1676.2188,284.0156 1676.1563,283.6094 C1676.0625,283.2031 1675.8906,282.9844 1675.4063,282.7031 C1674.9375,282.4531 1674.3281,282.2969 1673.75,282.2969 C1672.0156,282.2969 1670.7656,283.6094 1670.7656,285.3906 L1670.7656,286.4844 C1670.7656,288.1875 1672.0625,289.2813 1674.1094,289.2813 C1674.875,289.2813 1675.5625,289.1563 1675.9844,288.8906 C1676.1719,288.7969 1676.1719,288.7969 1676.625,288.3125 C1676.8125,288.125 1677.0156,288.0469 1677.2344,288.0469 C1677.7031,288.0469 1678.0938,288.4375 1678.0938,288.8906 C1678.0938,289.2813 1677.7656,289.7344 1677.1875,290.1406 C1676.4375,290.6875 1675.2813,290.9844 1674.0625,290.9844 C1671.1719,290.9844 1669.0625,289.0938 1669.0625,286.5156 L1669.0625,285.3906 C1669.0625,282.6719 1671.0625,280.5938 1673.6875,280.5938 C1674.5625,280.5938 1675.1563,280.7344 1676.0938,281.1719 Z "/><text fill="#000000" font-family="sans-serif" font-size="12" lengthAdjust="spacingAndGlyphs" textLength="82" x="1694.25" y="289.6543">BasicPipeline</text><line style="stroke: #A80036; stroke-width: 1.5;" x1="1570.5" x2="1867.5" y1="301.5" y2="301.5"/><ellipse cx="1580.5" cy="313.4023" fill="none" rx="3" ry="3" style="stroke: #038048; stroke-width: 1.0;"/><text fill="#000000" font-family="sans-serif" font-size="11" lengthAdjust="spacingAndGlyphs" textLength="149" x="1589.5" y="315.7104">workspaces : Workspace[]</text><line style="stroke: #A80036; stroke-width: 1.5;" x1="1570.5" x2="1867.5" y1="322.3047" y2="322.3047"/><ellipse cx="1580.5" cy="334.207" fill="#84BE84" rx="3" ry="3" style="stroke: #038048; stroke-width: 1.0;"/><text fill="#000000" font-family="sans-serif" font-size="11" lengthAdjust="spacingAndGlyphs" textLength="251" x="1589.5" y="336.5151">addWorkspace(workspace: Workspace): void</text><ellipse cx="1580.5" cy="347.0117" fill="#84BE84" rx="3" ry="3" style="stroke: #038048; stroke-width: 1.0;"/><text fill="#000000" font-family="sans-serif" font-size="11" lengthAdjust="spacingAndGlyphs" textLength="273" x="1589.5" y="349.3198">removeWorkspace(workspace: Workspace): void</text><ellipse cx="1580.5" cy="359.8164" fill="#84BE84" rx="3" ry="3" style="stroke: #038048; stroke-width: 1.0;"/><text fill="#000000" font-family="sans-serif" font-size="11" lengthAdjust="spacingAndGlyphs" textLength="66" x="1589.5" y="362.1245">start(): void</text><ellipse cx="1580.5" cy="372.6211" fill="#84BE84" rx="3" ry="3" style="stroke: #038048; stroke-width: 1.0;"/><text fill="#000000" font-family="sans-serif" font-size="11" lengthAdjust="spacingAndGlyphs" textLength="156" x="1589.5" y="374.9292">schedule(cron: string): void</text><!--class TextReplacer--><rect fill="#FEFECE" filter="url(#fs00jrv6ikh5n)" height="73.6094" id="TextReplacer" style="stroke: #A80036; stroke-width: 1.5;" width="420" x="2099" y="52.5"/><ellipse cx="2264.25" cy="68.5" fill="#ADD1B2" rx="11" ry="11" style="stroke: #A80036; stroke-width: 1.0;"/><path d="M2266.5938,64.1719 L2266.7656,64.25 C2266.9844,63.9375 2267.1875,63.8438 2267.4844,63.8438 C2267.7813,63.8438 2268.0625,63.9844 2268.2188,64.25 C2268.3125,64.4063 2268.3281,64.5313 2268.3281,64.9688 L2268.3281,66.3906 C2268.3281,66.8125 2268.2969,67 2268.1875,67.1563 C2268.0156,67.375 2267.75,67.5156 2267.4844,67.5156 C2267.2656,67.5156 2267.0313,67.4063 2266.8906,67.2656 C2266.75,67.1406 2266.7188,67.0156 2266.6563,66.6094 C2266.5625,66.2031 2266.3906,65.9844 2265.9063,65.7031 C2265.4375,65.4531 2264.8281,65.2969 2264.25,65.2969 C2262.5156,65.2969 2261.2656,66.6094 2261.2656,68.3906 L2261.2656,69.4844 C2261.2656,71.1875 2262.5625,72.2813 2264.6094,72.2813 C2265.375,72.2813 2266.0625,72.1563 2266.4844,71.8906 C2266.6719,71.7969 2266.6719,71.7969 2267.125,71.3125 C2267.3125,71.125 2267.5156,71.0469 2267.7344,71.0469 C2268.2031,71.0469 2268.5938,71.4375 2268.5938,71.8906 C2268.5938,72.2813 2268.2656,72.7344 2267.6875,73.1406 C2266.9375,73.6875 2265.7813,73.9844 2264.5625,73.9844 C2261.6719,73.9844 2259.5625,72.0938 2259.5625,69.5156 L2259.5625,68.3906 C2259.5625,65.6719 2261.5625,63.5938 2264.1875,63.5938 C2265.0625,63.5938 2265.6563,63.7344 2266.5938,64.1719 Z "/><text fill="#000000" font-family="sans-serif" font-size="12" lengthAdjust="spacingAndGlyphs" textLength="81" x="2284.75" y="72.6543">TextReplacer</text><line style="stroke: #A80036; stroke-width: 1.5;" x1="2100" x2="2518" y1="84.5" y2="84.5"/><line style="stroke: #A80036; stroke-width: 1.5;" x1="2100" x2="2518" y1="92.5" y2="92.5"/><ellipse cx="2110" cy="104.4023" fill="#84BE84" rx="3" ry="3" style="stroke: #038048; stroke-width: 1.0;"/><text fill="#000000" font-family="sans-serif" font-size="11" lengthAdjust="spacingAndGlyphs" textLength="394" x="2119" y="106.7104">replace(text: string, searchValue: string, replaceValue: string): string</text><polygon fill="#FFFF44" points="2110,112.207,2114,116.207,2110,120.207,2106,116.207" style="stroke: #B38D22; stroke-width: 1.0;"/><text fill="#000000" font-family="sans-serif" font-size="11" lengthAdjust="spacingAndGlyphs" textLength="221" x="2119" y="119.5151">_getRegex(replaceValue: string): string</text><!--class WordReplacer--><rect fill="#FEFECE" filter="url(#fs00jrv6ikh5n)" height="60.8047" id="WordReplacer" style="stroke: #A80036; stroke-width: 1.5;" width="247" x="1903.5" y="295"/><ellipse cx="1979.25" cy="311" fill="#ADD1B2" rx="11" ry="11" style="stroke: #A80036; stroke-width: 1.0;"/><path d="M1981.5938,306.6719 L1981.7656,306.75 C1981.9844,306.4375 1982.1875,306.3438 1982.4844,306.3438 C1982.7813,306.3438 1983.0625,306.4844 1983.2188,306.75 C1983.3125,306.9063 1983.3281,307.0313 1983.3281,307.4688 L1983.3281,308.8906 C1983.3281,309.3125 1983.2969,309.5 1983.1875,309.6563 C1983.0156,309.875 1982.75,310.0156 1982.4844,310.0156 C1982.2656,310.0156 1982.0313,309.9063 1981.8906,309.7656 C1981.75,309.6406 1981.7188,309.5156 1981.6563,309.1094 C1981.5625,308.7031 1981.3906,308.4844 1980.9063,308.2031 C1980.4375,307.9531 1979.8281,307.7969 1979.25,307.7969 C1977.5156,307.7969 1976.2656,309.1094 1976.2656,310.8906 L1976.2656,311.9844 C1976.2656,313.6875 1977.5625,314.7813 1979.6094,314.7813 C1980.375,314.7813 1981.0625,314.6563 1981.4844,314.3906 C1981.6719,314.2969 1981.6719,314.2969 1982.125,313.8125 C1982.3125,313.625 1982.5156,313.5469 1982.7344,313.5469 C1983.2031,313.5469 1983.5938,313.9375 1983.5938,314.3906 C1983.5938,314.7813 1983.2656,315.2344 1982.6875,315.6406 C1981.9375,316.1875 1980.7813,316.4844 1979.5625,316.4844 C1976.6719,316.4844 1974.5625,314.5938 1974.5625,312.0156 L1974.5625,310.8906 C1974.5625,308.1719 1976.5625,306.0938 1979.1875,306.0938 C1980.0625,306.0938 1980.6563,306.2344 1981.5938,306.6719 Z "/><text fill="#000000" font-family="sans-serif" font-size="12" lengthAdjust="spacingAndGlyphs" textLength="87" x="1999.75" y="315.1543">WordReplacer</text><line style="stroke: #A80036; stroke-width: 1.5;" x1="1904.5" x2="2149.5" y1="327" y2="327"/><line style="stroke: #A80036; stroke-width: 1.5;" x1="1904.5" x2="2149.5" y1="335" y2="335"/><ellipse cx="1914.5" cy="346.9023" fill="#84BE84" rx="3" ry="3" style="stroke: #038048; stroke-width: 1.0;"/><text fill="#000000" font-family="sans-serif" font-size="11" lengthAdjust="spacingAndGlyphs" textLength="221" x="1923.5" y="349.2104">_getRegex(replaceValue: string): string</text><!--class SpecialReplacer--><rect fill="#FEFECE" filter="url(#fs00jrv6ikh5n)" height="60.8047" id="SpecialReplacer" style="stroke: #A80036; stroke-width: 1.5;" width="247" x="2185.5" y="295"/><ellipse cx="2254.75" cy="311" fill="#ADD1B2" rx="11" ry="11" style="stroke: #A80036; stroke-width: 1.0;"/><path d="M2257.0938,306.6719 L2257.2656,306.75 C2257.4844,306.4375 2257.6875,306.3438 2257.9844,306.3438 C2258.2813,306.3438 2258.5625,306.4844 2258.7188,306.75 C2258.8125,306.9063 2258.8281,307.0313 2258.8281,307.4688 L2258.8281,308.8906 C2258.8281,309.3125 2258.7969,309.5 2258.6875,309.6563 C2258.5156,309.875 2258.25,310.0156 2257.9844,310.0156 C2257.7656,310.0156 2257.5313,309.9063 2257.3906,309.7656 C2257.25,309.6406 2257.2188,309.5156 2257.1563,309.1094 C2257.0625,308.7031 2256.8906,308.4844 2256.4063,308.2031 C2255.9375,307.9531 2255.3281,307.7969 2254.75,307.7969 C2253.0156,307.7969 2251.7656,309.1094 2251.7656,310.8906 L2251.7656,311.9844 C2251.7656,313.6875 2253.0625,314.7813 2255.1094,314.7813 C2255.875,314.7813 2256.5625,314.6563 2256.9844,314.3906 C2257.1719,314.2969 2257.1719,314.2969 2257.625,313.8125 C2257.8125,313.625 2258.0156,313.5469 2258.2344,313.5469 C2258.7031,313.5469 2259.0938,313.9375 2259.0938,314.3906 C2259.0938,314.7813 2258.7656,315.2344 2258.1875,315.6406 C2257.4375,316.1875 2256.2813,316.4844 2255.0625,316.4844 C2252.1719,316.4844 2250.0625,314.5938 2250.0625,312.0156 L2250.0625,310.8906 C2250.0625,308.1719 2252.0625,306.0938 2254.6875,306.0938 C2255.5625,306.0938 2256.1563,306.2344 2257.0938,306.6719 Z "/><text fill="#000000" font-family="sans-serif" font-size="12" lengthAdjust="spacingAndGlyphs" textLength="100" x="2275.25" y="315.1543">SpecialReplacer</text><line style="stroke: #A80036; stroke-width: 1.5;" x1="2186.5" x2="2431.5" y1="327" y2="327"/><line style="stroke: #A80036; stroke-width: 1.5;" x1="2186.5" x2="2431.5" y1="335" y2="335"/><ellipse cx="2196.5" cy="346.9023" fill="#84BE84" rx="3" ry="3" style="stroke: #038048; stroke-width: 1.0;"/><text fill="#000000" font-family="sans-serif" font-size="11" lengthAdjust="spacingAndGlyphs" textLength="221" x="2205.5" y="349.2104">_getRegex(replaceValue: string): string</text><!--class ExactReplacer--><rect fill="#FEFECE" filter="url(#fs00jrv6ikh5n)" height="60.8047" id="ExactReplacer" style="stroke: #A80036; stroke-width: 1.5;" width="247" x="2467.5" y="295"/><ellipse cx="2542.25" cy="311" fill="#ADD1B2" rx="11" ry="11" style="stroke: #A80036; stroke-width: 1.0;"/><path d="M2544.5938,306.6719 L2544.7656,306.75 C2544.9844,306.4375 2545.1875,306.3438 2545.4844,306.3438 C2545.7813,306.3438 2546.0625,306.4844 2546.2188,306.75 C2546.3125,306.9063 2546.3281,307.0313 2546.3281,307.4688 L2546.3281,308.8906 C2546.3281,309.3125 2546.2969,309.5 2546.1875,309.6563 C2546.0156,309.875 2545.75,310.0156 2545.4844,310.0156 C2545.2656,310.0156 2545.0313,309.9063 2544.8906,309.7656 C2544.75,309.6406 2544.7188,309.5156 2544.6563,309.1094 C2544.5625,308.7031 2544.3906,308.4844 2543.9063,308.2031 C2543.4375,307.9531 2542.8281,307.7969 2542.25,307.7969 C2540.5156,307.7969 2539.2656,309.1094 2539.2656,310.8906 L2539.2656,311.9844 C2539.2656,313.6875 2540.5625,314.7813 2542.6094,314.7813 C2543.375,314.7813 2544.0625,314.6563 2544.4844,314.3906 C2544.6719,314.2969 2544.6719,314.2969 2545.125,313.8125 C2545.3125,313.625 2545.5156,313.5469 2545.7344,313.5469 C2546.2031,313.5469 2546.5938,313.9375 2546.5938,314.3906 C2546.5938,314.7813 2546.2656,315.2344 2545.6875,315.6406 C2544.9375,316.1875 2543.7813,316.4844 2542.5625,316.4844 C2539.6719,316.4844 2537.5625,314.5938 2537.5625,312.0156 L2537.5625,310.8906 C2537.5625,308.1719 2539.5625,306.0938 2542.1875,306.0938 C2543.0625,306.0938 2543.6563,306.2344 2544.5938,306.6719 Z "/><text fill="#000000" font-family="sans-serif" font-size="12" lengthAdjust="spacingAndGlyphs" textLength="89" x="2562.75" y="315.1543">ExactReplacer</text><line style="stroke: #A80036; stroke-width: 1.5;" x1="2468.5" x2="2713.5" y1="327" y2="327"/><line style="stroke: #A80036; stroke-width: 1.5;" x1="2468.5" x2="2713.5" y1="335" y2="335"/><ellipse cx="2478.5" cy="346.9023" fill="#84BE84" rx="3" ry="3" style="stroke: #038048; stroke-width: 1.0;"/><text fill="#000000" font-family="sans-serif" font-size="11" lengthAdjust="spacingAndGlyphs" textLength="221" x="2487.5" y="349.2104">_getRegex(replaceValue: string): string</text><!--class TextReplacerFactory--><rect fill="#FEFECE" filter="url(#fs00jrv6ikh5n)" height="60.8047" id="TextReplacerFactory" style="stroke: #A80036; stroke-width: 1.5;" width="316" x="2554" y="59"/><ellipse cx="2644.25" cy="75" fill="#ADD1B2" rx="11" ry="11" style="stroke: #A80036; stroke-width: 1.0;"/><path d="M2646.5938,70.6719 L2646.7656,70.75 C2646.9844,70.4375 2647.1875,70.3438 2647.4844,70.3438 C2647.7813,70.3438 2648.0625,70.4844 2648.2188,70.75 C2648.3125,70.9063 2648.3281,71.0313 2648.3281,71.4688 L2648.3281,72.8906 C2648.3281,73.3125 2648.2969,73.5 2648.1875,73.6563 C2648.0156,73.875 2647.75,74.0156 2647.4844,74.0156 C2647.2656,74.0156 2647.0313,73.9063 2646.8906,73.7656 C2646.75,73.6406 2646.7188,73.5156 2646.6563,73.1094 C2646.5625,72.7031 2646.3906,72.4844 2645.9063,72.2031 C2645.4375,71.9531 2644.8281,71.7969 2644.25,71.7969 C2642.5156,71.7969 2641.2656,73.1094 2641.2656,74.8906 L2641.2656,75.9844 C2641.2656,77.6875 2642.5625,78.7813 2644.6094,78.7813 C2645.375,78.7813 2646.0625,78.6563 2646.4844,78.3906 C2646.6719,78.2969 2646.6719,78.2969 2647.125,77.8125 C2647.3125,77.625 2647.5156,77.5469 2647.7344,77.5469 C2648.2031,77.5469 2648.5938,77.9375 2648.5938,78.3906 C2648.5938,78.7813 2648.2656,79.2344 2647.6875,79.6406 C2646.9375,80.1875 2645.7813,80.4844 2644.5625,80.4844 C2641.6719,80.4844 2639.5625,78.5938 2639.5625,76.0156 L2639.5625,74.8906 C2639.5625,72.1719 2641.5625,70.0938 2644.1875,70.0938 C2645.0625,70.0938 2645.6563,70.2344 2646.5938,70.6719 Z "/><text fill="#000000" font-family="sans-serif" font-size="12" lengthAdjust="spacingAndGlyphs" textLength="127" x="2664.75" y="79.1543">TextReplacerFactory</text><line style="stroke: #A80036; stroke-width: 1.5;" x1="2555" x2="2869" y1="91" y2="91"/><line style="stroke: #A80036; stroke-width: 1.5;" x1="2555" x2="2869" y1="99" y2="99"/><ellipse cx="2565" cy="110.9023" fill="#84BE84" rx="3" ry="3" style="stroke: #038048; stroke-width: 1.0;"/><text fill="#000000" font-family="sans-serif" font-size="11" lengthAdjust="spacingAndGlyphs" textLength="290" x="2574" y="113.2104">create(method: TextReplacerMethod): TextReplacer</text><!--class Workspace--><rect fill="#FEFECE" filter="url(#fs00jrv6ikh5n)" height="163.2422" id="Workspace" style="stroke: #A80036; stroke-width: 1.5;" width="202" x="530" y="8"/><ellipse cx="592.25" cy="24" fill="#B4A7E5" rx="11" ry="11" style="stroke: #A80036; stroke-width: 1.0;"/><path d="M593.2031,20.7813 L593.2031,27.2969 L594.9219,27.2969 C595.375,27.2969 595.5156,27.3281 595.6875,27.4531 C595.9219,27.625 596.0313,27.875 596.0313,28.1563 C596.0313,28.7188 595.6719,29 594.9219,29 L589.7813,29 C589.375,29 589.1719,28.9531 589.0156,28.8281 C588.7969,28.6719 588.6563,28.4063 588.6563,28.1563 C588.6563,27.8594 588.8125,27.5781 589.0625,27.4219 C589.2188,27.3125 589.3438,27.2969 589.7813,27.2969 L591.5,27.2969 L591.5,20.7813 L589.7813,20.7813 C589.3594,20.7813 589.1719,20.75 589.0156,20.6406 C588.7969,20.4688 588.6563,20.2188 588.6563,19.9375 C588.6563,19.6563 588.8125,19.3594 589.0625,19.2031 C589.2188,19.1094 589.3438,19.0938 589.7813,19.0938 L594.9219,19.0938 C595.375,19.0938 595.5156,19.125 595.6875,19.2344 C595.9219,19.4063 596.0313,19.6719 596.0313,19.9375 C596.0313,20.2344 595.8906,20.5156 595.625,20.6719 C595.5,20.75 595.3125,20.7813 594.9219,20.7813 Z "/><text fill="#000000" font-family="sans-serif" font-size="12" font-style="italic" lengthAdjust="spacingAndGlyphs" textLength="69" x="612.75" y="28.1543">Workspace</text><line style="stroke: #A80036; stroke-width: 1.5;" x1="531" x2="731" y1="40" y2="40"/><ellipse cx="541" cy="51.9023" fill="none" rx="3" ry="3" style="stroke: #038048; stroke-width: 1.0;"/><text fill="#000000" font-family="sans-serif" font-size="11" lengthAdjust="spacingAndGlyphs" textLength="66" x="550" y="54.2104">id : number</text><ellipse cx="541" cy="64.707" fill="none" rx="3" ry="3" style="stroke: #038048; stroke-width: 1.0;"/><text fill="#000000" font-family="sans-serif" font-size="11" lengthAdjust="spacingAndGlyphs" textLength="66" x="550" y="67.0151">title : string</text><ellipse cx="541" cy="77.5117" fill="none" rx="3" ry="3" style="stroke: #038048; stroke-width: 1.0;"/><text fill="#000000" font-family="sans-serif" font-size="11" lengthAdjust="spacingAndGlyphs" textLength="84" x="550" y="79.8198">nodes : Node[]</text><line style="stroke: #A80036; stroke-width: 1.5;" x1="531" x2="731" y1="86.4141" y2="86.4141"/><ellipse cx="541" cy="98.3164" fill="#84BE84" rx="3" ry="3" style="stroke: #038048; stroke-width: 1.0;"/><text fill="#000000" font-family="sans-serif" font-size="11" lengthAdjust="spacingAndGlyphs" textLength="154" x="550" y="100.6245">addNode(node: Node): void</text><ellipse cx="541" cy="111.1211" fill="#84BE84" rx="3" ry="3" style="stroke: #038048; stroke-width: 1.0;"/><text fill="#000000" font-family="sans-serif" font-size="11" lengthAdjust="spacingAndGlyphs" textLength="176" x="550" y="113.4292">removeNode(node: Node): void</text><ellipse cx="541" cy="123.9258" fill="#84BE84" rx="3" ry="3" style="stroke: #038048; stroke-width: 1.0;"/><text fill="#000000" font-family="sans-serif" font-size="11" lengthAdjust="spacingAndGlyphs" textLength="66" x="550" y="126.2339">start(): void</text><ellipse cx="541" cy="136.7305" fill="#84BE84" rx="3" ry="3" style="stroke: #038048; stroke-width: 1.0;"/><text fill="#000000" font-family="sans-serif" font-size="11" lengthAdjust="spacingAndGlyphs" textLength="74" x="550" y="139.0386">pause(): void</text><ellipse cx="541" cy="149.5352" fill="#84BE84" rx="3" ry="3" style="stroke: #038048; stroke-width: 1.0;"/><text fill="#000000" font-family="sans-serif" font-size="11" lengthAdjust="spacingAndGlyphs" textLength="83" x="550" y="151.8433">resume(): void</text><ellipse cx="541" cy="162.3398" fill="#84BE84" rx="3" ry="3" style="stroke: #038048; stroke-width: 1.0;"/><text fill="#000000" font-family="sans-serif" font-size="11" lengthAdjust="spacingAndGlyphs" textLength="64" x="550" y="164.6479">stop(): void</text><!--class EtlWorkspace--><rect fill="#FEFECE" filter="url(#fs00jrv6ikh5n)" height="188.8516" id="EtlWorkspace" style="stroke: #A80036; stroke-width: 1.5;" width="218" x="522" y="231"/><ellipse cx="584.25" cy="247" fill="#ADD1B2" rx="11" ry="11" style="stroke: #A80036; stroke-width: 1.0;"/><path d="M586.5938,242.6719 L586.7656,242.75 C586.9844,242.4375 587.1875,242.3438 587.4844,242.3438 C587.7813,242.3438 588.0625,242.4844 588.2188,242.75 C588.3125,242.9063 588.3281,243.0313 588.3281,243.4688 L588.3281,244.8906 C588.3281,245.3125 588.2969,245.5 588.1875,245.6563 C588.0156,245.875 587.75,246.0156 587.4844,246.0156 C587.2656,246.0156 587.0313,245.9063 586.8906,245.7656 C586.75,245.6406 586.7188,245.5156 586.6563,245.1094 C586.5625,244.7031 586.3906,244.4844 585.9063,244.2031 C585.4375,243.9531 584.8281,243.7969 584.25,243.7969 C582.5156,243.7969 581.2656,245.1094 581.2656,246.8906 L581.2656,247.9844 C581.2656,249.6875 582.5625,250.7813 584.6094,250.7813 C585.375,250.7813 586.0625,250.6563 586.4844,250.3906 C586.6719,250.2969 586.6719,250.2969 587.125,249.8125 C587.3125,249.625 587.5156,249.5469 587.7344,249.5469 C588.2031,249.5469 588.5938,249.9375 588.5938,250.3906 C588.5938,250.7813 588.2656,251.2344 587.6875,251.6406 C586.9375,252.1875 585.7813,252.4844 584.5625,252.4844 C581.6719,252.4844 579.5625,250.5938 579.5625,248.0156 L579.5625,246.8906 C579.5625,244.1719 581.5625,242.0938 584.1875,242.0938 C585.0625,242.0938 585.6563,242.2344 586.5938,242.6719 Z "/><text fill="#000000" font-family="sans-serif" font-size="12" lengthAdjust="spacingAndGlyphs" textLength="85" x="604.75" y="251.1543">EtlWorkspace</text><line style="stroke: #A80036; stroke-width: 1.5;" x1="523" x2="739" y1="263" y2="263"/><ellipse cx="533" cy="274.9023" fill="none" rx="3" ry="3" style="stroke: #038048; stroke-width: 1.0;"/><text fill="#000000" font-family="sans-serif" font-size="11" lengthAdjust="spacingAndGlyphs" textLength="66" x="542" y="277.2104">id : number</text><ellipse cx="533" cy="287.707" fill="none" rx="3" ry="3" style="stroke: #038048; stroke-width: 1.0;"/><text fill="#000000" font-family="sans-serif" font-size="11" lengthAdjust="spacingAndGlyphs" textLength="66" x="542" y="290.0151">title : string</text><ellipse cx="533" cy="300.5117" fill="none" rx="3" ry="3" style="stroke: #038048; stroke-width: 1.0;"/><text fill="#000000" font-family="sans-serif" font-size="11" lengthAdjust="spacingAndGlyphs" textLength="84" x="542" y="302.8198">nodes : Node[]</text><ellipse cx="533" cy="313.3164" fill="none" rx="3" ry="3" style="stroke: #038048; stroke-width: 1.0;"/><text fill="#000000" font-family="sans-serif" font-size="11" lengthAdjust="spacingAndGlyphs" textLength="192" x="542" y="315.6245">relationships : NodeRelationship[]</text><ellipse cx="533" cy="326.1211" fill="none" rx="3" ry="3" style="stroke: #038048; stroke-width: 1.0;"/><text fill="#000000" font-family="sans-serif" font-size="11" lengthAdjust="spacingAndGlyphs" textLength="93" x="542" y="328.4292">currNode : Node</text><line style="stroke: #A80036; stroke-width: 1.5;" x1="523" x2="739" y1="335.0234" y2="335.0234"/><ellipse cx="533" cy="346.9258" fill="#84BE84" rx="3" ry="3" style="stroke: #038048; stroke-width: 1.0;"/><text fill="#000000" font-family="sans-serif" font-size="11" lengthAdjust="spacingAndGlyphs" textLength="154" x="542" y="349.2339">addNode(node: Node): void</text><ellipse cx="533" cy="359.7305" fill="#84BE84" rx="3" ry="3" style="stroke: #038048; stroke-width: 1.0;"/><text fill="#000000" font-family="sans-serif" font-size="11" lengthAdjust="spacingAndGlyphs" textLength="176" x="542" y="362.0386">removeNode(node: Node): void</text><ellipse cx="533" cy="372.5352" fill="#84BE84" rx="3" ry="3" style="stroke: #038048; stroke-width: 1.0;"/><text fill="#000000" font-family="sans-serif" font-size="11" lengthAdjust="spacingAndGlyphs" textLength="66" x="542" y="374.8433">start(): void</text><ellipse cx="533" cy="385.3398" fill="#84BE84" rx="3" ry="3" style="stroke: #038048; stroke-width: 1.0;"/><text fill="#000000" font-family="sans-serif" font-size="11" lengthAdjust="spacingAndGlyphs" textLength="74" x="542" y="387.6479">pause(): void</text><ellipse cx="533" cy="398.1445" fill="#84BE84" rx="3" ry="3" style="stroke: #038048; stroke-width: 1.0;"/><text fill="#000000" font-family="sans-serif" font-size="11" lengthAdjust="spacingAndGlyphs" textLength="83" x="542" y="400.4526">resume(): void</text><ellipse cx="533" cy="410.9492" fill="#84BE84" rx="3" ry="3" style="stroke: #038048; stroke-width: 1.0;"/><text fill="#000000" font-family="sans-serif" font-size="11" lengthAdjust="spacingAndGlyphs" textLength="64" x="542" y="413.2573">stop(): void</text><!--class NodeStatus--><rect fill="#FEFECE" filter="url(#fs00jrv6ikh5n)" height="48" id="NodeStatus" style="stroke: #A80036; stroke-width: 1.5;" width="106" x="672" y="894.5"/><ellipse cx="687" cy="910.5" fill="#ADD1B2" rx="11" ry="11" style="stroke: #A80036; stroke-width: 1.0;"/><path d="M689.3438,906.1719 L689.5156,906.25 C689.7344,905.9375 689.9375,905.8438 690.2344,905.8438 C690.5313,905.8438 690.8125,905.9844 690.9688,906.25 C691.0625,906.4063 691.0781,906.5313 691.0781,906.9688 L691.0781,908.3906 C691.0781,908.8125 691.0469,909 690.9375,909.1563 C690.7656,909.375 690.5,909.5156 690.2344,909.5156 C690.0156,909.5156 689.7813,909.4063 689.6406,909.2656 C689.5,909.1406 689.4688,909.0156 689.4063,908.6094 C689.3125,908.2031 689.1406,907.9844 688.6563,907.7031 C688.1875,907.4531 687.5781,907.2969 687,907.2969 C685.2656,907.2969 684.0156,908.6094 684.0156,910.3906 L684.0156,911.4844 C684.0156,913.1875 685.3125,914.2813 687.3594,914.2813 C688.125,914.2813 688.8125,914.1563 689.2344,913.8906 C689.4219,913.7969 689.4219,913.7969 689.875,913.3125 C690.0625,913.125 690.2656,913.0469 690.4844,913.0469 C690.9531,913.0469 691.3438,913.4375 691.3438,913.8906 C691.3438,914.2813 691.0156,914.7344 690.4375,915.1406 C689.6875,915.6875 688.5313,915.9844 687.3125,915.9844 C684.4219,915.9844 682.3125,914.0938 682.3125,911.5156 L682.3125,910.3906 C682.3125,907.6719 684.3125,905.5938 686.9375,905.5938 C687.8125,905.5938 688.4063,905.7344 689.3438,906.1719 Z "/><text fill="#000000" font-family="sans-serif" font-size="12" lengthAdjust="spacingAndGlyphs" textLength="74" x="701" y="914.6543">NodeStatus</text><line style="stroke: #A80036; stroke-width: 1.5;" x1="673" x2="777" y1="926.5" y2="926.5"/><line style="stroke: #A80036; stroke-width: 1.5;" x1="673" x2="777" y1="934.5" y2="934.5"/><!--class NodeRelationshipType--><rect fill="#FEFECE" filter="url(#fs00jrv6ikh5n)" height="48" id="NodeRelationshipType" style="stroke: #A80036; stroke-width: 1.5;" width="171" x="819.5" y="518.5"/><ellipse cx="834.5" cy="534.5" fill="#ADD1B2" rx="11" ry="11" style="stroke: #A80036; stroke-width: 1.0;"/><path d="M836.8438,530.1719 L837.0156,530.25 C837.2344,529.9375 837.4375,529.8438 837.7344,529.8438 C838.0313,529.8438 838.3125,529.9844 838.4688,530.25 C838.5625,530.4063 838.5781,530.5313 838.5781,530.9688 L838.5781,532.3906 C838.5781,532.8125 838.5469,533 838.4375,533.1563 C838.2656,533.375 838,533.5156 837.7344,533.5156 C837.5156,533.5156 837.2813,533.4063 837.1406,533.2656 C837,533.1406 836.9688,533.0156 836.9063,532.6094 C836.8125,532.2031 836.6406,531.9844 836.1563,531.7031 C835.6875,531.4531 835.0781,531.2969 834.5,531.2969 C832.7656,531.2969 831.5156,532.6094 831.5156,534.3906 L831.5156,535.4844 C831.5156,537.1875 832.8125,538.2813 834.8594,538.2813 C835.625,538.2813 836.3125,538.1563 836.7344,537.8906 C836.9219,537.7969 836.9219,537.7969 837.375,537.3125 C837.5625,537.125 837.7656,537.0469 837.9844,537.0469 C838.4531,537.0469 838.8438,537.4375 838.8438,537.8906 C838.8438,538.2813 838.5156,538.7344 837.9375,539.1406 C837.1875,539.6875 836.0313,539.9844 834.8125,539.9844 C831.9219,539.9844 829.8125,538.0938 829.8125,535.5156 L829.8125,534.3906 C829.8125,531.6719 831.8125,529.5938 834.4375,529.5938 C835.3125,529.5938 835.9063,529.7344 836.8438,530.1719 Z "/><text fill="#000000" font-family="sans-serif" font-size="12" lengthAdjust="spacingAndGlyphs" textLength="139" x="848.5" y="538.6543">NodeRelationshipType</text><line style="stroke: #A80036; stroke-width: 1.5;" x1="820.5" x2="989.5" y1="550.5" y2="550.5"/><line style="stroke: #A80036; stroke-width: 1.5;" x1="820.5" x2="989.5" y1="558.5" y2="558.5"/><!--class TextReplacerMethod--><rect fill="#FEFECE" filter="url(#fs00jrv6ikh5n)" height="48" id="TextReplacerMethod" style="stroke: #A80036; stroke-width: 1.5;" width="160" x="981" y="301.5"/><ellipse cx="996" cy="317.5" fill="#ADD1B2" rx="11" ry="11" style="stroke: #A80036; stroke-width: 1.0;"/><path d="M998.3438,313.1719 L998.5156,313.25 C998.7344,312.9375 998.9375,312.8438 999.2344,312.8438 C999.5313,312.8438 999.8125,312.9844 999.9688,313.25 C1000.0625,313.4063 1000.0781,313.5313 1000.0781,313.9688 L1000.0781,315.3906 C1000.0781,315.8125 1000.0469,316 999.9375,316.1563 C999.7656,316.375 999.5,316.5156 999.2344,316.5156 C999.0156,316.5156 998.7813,316.4063 998.6406,316.2656 C998.5,316.1406 998.4688,316.0156 998.4063,315.6094 C998.3125,315.2031 998.1406,314.9844 997.6563,314.7031 C997.1875,314.4531 996.5781,314.2969 996,314.2969 C994.2656,314.2969 993.0156,315.6094 993.0156,317.3906 L993.0156,318.4844 C993.0156,320.1875 994.3125,321.2813 996.3594,321.2813 C997.125,321.2813 997.8125,321.1563 998.2344,320.8906 C998.4219,320.7969 998.4219,320.7969 998.875,320.3125 C999.0625,320.125 999.2656,320.0469 999.4844,320.0469 C999.9531,320.0469 1000.3438,320.4375 1000.3438,320.8906 C1000.3438,321.2813 1000.0156,321.7344 999.4375,322.1406 C998.6875,322.6875 997.5313,322.9844 996.3125,322.9844 C993.4219,322.9844 991.3125,321.0938 991.3125,318.5156 L991.3125,317.3906 C991.3125,314.6719 993.3125,312.5938 995.9375,312.5938 C996.8125,312.5938 997.4063,312.7344 998.3438,313.1719 Z "/><text fill="#000000" font-family="sans-serif" font-size="12" lengthAdjust="spacingAndGlyphs" textLength="128" x="1010" y="321.6543">TextReplacerMethod</text><line style="stroke: #A80036; stroke-width: 1.5;" x1="982" x2="1140" y1="333.5" y2="333.5"/><line style="stroke: #A80036; stroke-width: 1.5;" x1="982" x2="1140" y1="341.5" y2="341.5"/><!--link EtlNode to Command--><path d="M586.951,828.019 C576.308,847.474 565.494,867.242 556.746,883.232 " fill="none" id="EtlNode-Command" style="stroke: #A80036; stroke-width: 1.0;"/><polygon fill="#A80036" points="554.336,887.639,562.1646,881.663,556.7357,883.2525,555.1462,877.8235,554.336,887.639" style="stroke: #A80036; stroke-width: 1.0;"/><!--link EtlNode to NodeStatus--><path d="M675.523,828.019 C687.754,850.141 700.211,872.668 709.565,889.586 " fill="none" id="EtlNode-NodeStatus" style="stroke: #A80036; stroke-width: 1.0;"/><polygon fill="#A80036" points="712.118,894.203,711.2626,884.3914,709.6982,889.8276,704.2619,888.2631,712.118,894.203" style="stroke: #A80036; stroke-width: 1.0;"/><!--link Processor to ProcessorAttributes--><path d="M611.056,1108.101 C638.169,1126.138 669.004,1146.651 696.5,1164.943 " fill="none" id="Processor-ProcessorAttributes" style="stroke: #A80036; stroke-width: 1.0;"/><polygon fill="#A80036" points="700.883,1167.859,695.6061,1159.5431,696.7203,1165.0891,691.1743,1166.2034,700.883,1167.859" style="stroke: #A80036; stroke-width: 1.0;"/><!--link Processor to Parameter--><path d="M561.63,1108.315 C574.404,1134.703 589.718,1166.339 600.476,1188.563 " fill="none" id="Processor-Parameter" style="stroke: #A80036; stroke-width: 1.0;"/><polygon fill="#A80036" points="602.7,1193.157,602.3798,1183.3133,600.5218,1188.6564,595.1788,1186.7984,602.7,1193.157" style="stroke: #A80036; stroke-width: 1.0;"/><!--link HarmonizeTransformer to Dictionary--><path d="M424.295,1560.131 C472.671,1578.474 530.872,1600.5404 577.335,1618.1573 " fill="none" id="HarmonizeTransformer-Dictionary" style="stroke: #A80036; stroke-width: 1.0;"/><polygon fill="#A80036" points="582.08,1619.9562,575.083,1613.025,577.4048,1618.1834,572.2465,1620.5053,582.08,1619.9562" style="stroke: #A80036; stroke-width: 1.0;"/><!--link NodeRelationship to Node--><path d="M819.937,375.02 C786.033,404.89 742.14,443.57 705.195,476.12 " fill="none" id="NodeRelationship-Node" style="stroke: #A80036; stroke-width: 1.0;"/><polygon fill="#A80036" points="701.185,479.66,710.5786,476.7003,704.9326,476.3501,705.2828,470.7041,701.185,479.66" style="stroke: #A80036; stroke-width: 1.0;"/><!--link NodeRelationship to NodeRelationshipType--><path d="M881.77,375.02 C887.716,417.63 896.162,478.16 901.062,513.27 " fill="none" id="NodeRelationship-NodeRelationshipType" style="stroke: #A80036; stroke-width: 1.0;"/><polygon fill="#A80036" points="901.758,518.27,904.4588,508.7987,901.0581,513.3192,896.5376,509.9185,901.758,518.27" style="stroke: #A80036; stroke-width: 1.0;"/><!--link DictionaryTransformerParameter to Dictionary--><path d="M913.741,1553.583 C862.38,1572.998 795.293,1598.3575 743.002,1618.1244 " fill="none" id="DictionaryTransformerParameter-Dictionary" style="stroke: #A80036; stroke-width: 1.0;"/><polygon fill="#A80036" points="738.308,1619.8986,748.141,1620.4567,742.9848,1618.1301,745.3114,1612.9739,738.308,1619.8986" style="stroke: #A80036; stroke-width: 1.0;"/><!--link DictionaryEntry to TextReplacerMethod--><path d="M1061,132.6 C1061,179.83 1061,255.13 1061,295.95 " fill="none" id="DictionaryEntry-TextReplacerMethod" style="stroke: #A80036; stroke-width: 1.0;"/><polygon fill="#A80036" points="1061,301.23,1065,292.23,1061,296.23,1057,292.23,1061,301.23" style="stroke: #A80036; stroke-width: 1.0;"/><!--link EtlWorkspace to Node--><path d="M631,420.18 C631,438.53 631,457.44 631,474.7 " fill="none" id="EtlWorkspace-Node" style="stroke: #A80036; stroke-width: 1.0;"/><polygon fill="#A80036" points="631,480,635,471,631,475,627,471,631,480" style="stroke: #A80036; stroke-width: 1.0;"/><!--link Node to EtlNode--><path d="M631,625.22 C631,638.27 631,651.77 631,664.8 " fill="none" id="Node-EtlNode" style="stroke: #A80036; stroke-width: 1.0;"/><polygon fill="none" points="624,625.2,631,605.2,638,625.2,624,625.2" style="stroke: #A80036; stroke-width: 1.0;"/><!--link Command to Processor--><path d="M538,969.491 C538,982.349 538,996.163 538,1008.946 " fill="none" id="Command-Processor" style="stroke: #A80036; stroke-width: 1.0;"/><polygon fill="none" points="531,969.104,538,949.104,545,969.104,531,969.104" style="stroke: #A80036; stroke-width: 1.0;"/><!--link Processor to AbstractTransformer--><path d="M434.013,1118.016 C396.853,1138.927 356.09,1161.865 323.261,1180.339 " fill="none" id="Processor-AbstractTransformer" style="stroke: #A80036; stroke-width: 1.0;"/><polygon fill="none" points="430.771,1111.808,451.633,1108.101,437.636,1124.009,430.771,1111.808" style="stroke: #A80036; stroke-width: 1.0;"/><!--link Processor to AbstractReader--><path d="M506.001,1126.485 C494.642,1150.262 482.595,1175.481 474.151,1193.157 " fill="none" id="Processor-AbstractReader" style="stroke: #A80036; stroke-width: 1.0;"/><polygon fill="none" points="499.743,1123.344,514.681,1108.315,512.376,1129.379,499.743,1123.344" style="stroke: #A80036; stroke-width: 1.0;"/><!--link AbstractReader to FtpReader--><path d="M448.951,1260.917 C440.058,1287.768 428.781,1321.816 420.838,1345.796 " fill="none" id="AbstractReader-FtpReader" style="stroke: #A80036; stroke-width: 1.0;"/><polygon fill="none" points="442.394,1258.451,455.327,1241.666,455.684,1262.853,442.394,1258.451" style="stroke: #A80036; stroke-width: 1.0;"/><!--link Parameter to ReaderParameter--><path d="M614.55,1261.708 C614.808,1281.92 615.116,1306.075 615.381,1326.92 " fill="none" id="Parameter-ReaderParameter" style="stroke: #A80036; stroke-width: 1.0;"/><polygon fill="none" points="607.551,1261.753,614.295,1241.666,621.549,1261.575,607.551,1261.753" style="stroke: #A80036; stroke-width: 1.0;"/><!--link ReaderParameter to FtpReaderParameter--><path d="M598.976,1445.832 C595.544,1459.608 592.064,1473.576 589.038,1485.722 " fill="none" id="ReaderParameter-FtpReaderParameter" style="stroke: #A80036; stroke-width: 1.0;"/><polygon fill="none" points="592.285,1443.733,603.912,1426.018,605.87,1447.117,592.285,1443.733" style="stroke: #A80036; stroke-width: 1.0;"/><!--link AbstractTransformer to UpperCaseTransformer--><path d="M209.911,1268.872 C185.125,1294.306 155.916,1324.279 134.788,1345.959 " fill="none" id="AbstractTransformer-UpperCaseTransformer" style="stroke: #A80036; stroke-width: 1.0;"/><polygon fill="none" points="204.927,1263.957,223.899,1254.519,214.953,1273.728,204.927,1263.957" style="stroke: #A80036; stroke-width: 1.0;"/><!--link AbstractTransformer to HarmonizeTransformer--><path d="M266.114,1274.564 C272.081,1316.632 281.76,1375.433 295,1426 C300.285,1446.183 307.921,1468.157 314.619,1485.982 " fill="none" id="AbstractTransformer-HarmonizeTransformer" style="stroke: #A80036; stroke-width: 1.0;"/><polygon fill="none" points="259.146,1275.273,263.371,1254.508,273.017,1273.375,259.146,1275.273" style="stroke: #A80036; stroke-width: 1.0;"/><!--link Parameter to TransformerParameter--><path d="M658.442,1254.466 C689.903,1279.927 731.933,1313.94 763.424,1339.426 " fill="none" id="Parameter-TransformerParameter" style="stroke: #A80036; stroke-width: 1.0;"/><polygon fill="none" points="653.769,1259.689,642.625,1241.666,662.576,1248.806,653.769,1259.689" style="stroke: #A80036; stroke-width: 1.0;"/><!--link TransformerParameter to LookupParameter--><path d="M792.666,1432.893 C787.082,1453.066 780.984,1475.095 776.248,1492.203 " fill="none" id="TransformerParameter-LookupParameter" style="stroke: #A80036; stroke-width: 1.0;"/><polygon fill="none" points="785.927,1430.998,798.009,1413.591,799.42,1434.733,785.927,1430.998" style="stroke: #A80036; stroke-width: 1.0;"/><!--link TransformerParameter to DictionaryTransformerParameter--><path d="M869.868,1426.087 C897.87,1448.077 930.058,1473.356 954.358,1492.439 " fill="none" id="TransformerParameter-DictionaryTransformerParameter" style="stroke: #A80036; stroke-width: 1.0;"/><polygon fill="none" points="865.362,1431.449,853.956,1413.591,874.009,1420.438,865.362,1431.449" style="stroke: #A80036; stroke-width: 1.0;"/><!--link Pipeline to BasicPipeline--><path d="M1519.05,140.3 C1560.11,178.12 1616.57,230.13 1659.02,269.24 " fill="none" id="Pipeline-BasicPipeline" style="stroke: #A80036; stroke-width: 1.0;"/><polygon fill="none" points="1514.1,145.25,1504.13,126.55,1523.58,134.95,1514.1,145.25" style="stroke: #A80036; stroke-width: 1.0;"/><!--link StartablePipeline to BasicPipeline--><path d="M1719,140.3 C1719,178.13 1719,230.12 1719,269.23 " fill="none" id="StartablePipeline-BasicPipeline" style="stroke: #A80036; stroke-width: 1.0;"/><polygon fill="none" points="1712,140.14,1719,120.14,1726,140.14,1712,140.14" style="stroke: #A80036; stroke-width: 1.0;"/><!--link SchedulablePipeline to BasicPipeline--><path d="M1876.4,135.62 C1844.63,173.74 1799.01,228.48 1765.06,269.23 " fill="none" id="SchedulablePipeline-BasicPipeline" style="stroke: #A80036; stroke-width: 1.0;"/><polygon fill="none" points="1871.12,131.02,1889.3,120.14,1881.88,139.98,1871.12,131.02" style="stroke: #A80036; stroke-width: 1.0;"/><!--link TextReplacer to WordReplacer--><path d="M2250.03,139.44 C2193.51,186.33 2110.05,255.59 2062.89,294.72 " fill="none" id="TextReplacer-WordReplacer" style="stroke: #A80036; stroke-width: 1.0;"/><polygon fill="none" points="2245.69,133.93,2265.56,126.55,2254.63,144.71,2245.69,133.93" style="stroke: #A80036; stroke-width: 1.0;"/><!--link TextReplacer to SpecialReplacer--><path d="M2309,146.84 C2309,193.37 2309,257.6 2309,294.72 " fill="none" id="TextReplacer-SpecialReplacer" style="stroke: #A80036; stroke-width: 1.0;"/><polygon fill="none" points="2302,146.55,2309,126.55,2316,146.55,2302,146.55" style="stroke: #A80036; stroke-width: 1.0;"/><!--link TextReplacer to ExactReplacer--><path d="M2367.97,139.44 C2424.49,186.33 2507.95,255.59 2555.11,294.72 " fill="none" id="TextReplacer-ExactReplacer" style="stroke: #A80036; stroke-width: 1.0;"/><polygon fill="none" points="2363.37,144.71,2352.44,126.55,2372.31,133.93,2363.37,144.71" style="stroke: #A80036; stroke-width: 1.0;"/><!--link Workspace to EtlWorkspace--><path d="M631,191.36 C631,204.5 631,217.92 631,230.94 " fill="none" id="Workspace-EtlWorkspace" style="stroke: #A80036; stroke-width: 1.0;"/><polygon fill="none" points="624,191.03,631,171.03,638,191.03,624,191.03" style="stroke: #A80036; stroke-width: 1.0;"/><!--
@startuml
interface Node{
  +id : number
  +title : string
  +relationships : NodeRelationship[]
  +addRelationship(rel: NodeRelationship): void
  +removeRelationship(relationshipID: number): void
  +run(): Data[]
}

class EtlNode{
  +id : number
  +title : string
  +command : Command
  +inputs : Data[]
  +relationships : NodeRelationship[]
  +status : NodeStatus
  +addRelationship(rel: NodeRelationship): void
  +removeRelationship(relationshipID: number): void
  +run(): Data[]
}

interface Command{
  +execute(inputs: Data[]): Data[]
}

class Processor{
  +attributes : ProcessorAttributes
  +inputs : Data[]
  +parameter : Parameter
  +execute(inputs: Data[]): Data[]
}

class AbstractTransformer{
  +execute(inputs: Data[]): Data[]
  +_transform(text: string): string
}

class AbstractReader{

}

class FtpReader{
  +execute(inputs: Data[]): Data[]
}

interface ReaderParameter{
  +host : string
  +username : string
  +password : string
  +port : number
}

interface Parameter{

}

interface FtpReaderParameter{
  +sourcePath : string
  +destPath : string
}

class UpperCaseTransformer{
  +_transform(text: string): string
}

class HarmonizeTransformer{
  +dict : Dictionary
  +_transform(text: string): string
}

interface ProcessorAttributes{
  +maxInputs : number
  +minInputs : number
  +maxOutputs : number
  +minOutputs : number
}

interface NodeRelationship{
  +id : number
  +title : string
  +sourceNode : Node
  +destNode : Node
}

interface TransformerParameter{
  +sourceField : string
  +destField : string
}

interface LookupParameter{
  +lookupTable : string
}

interface DictionaryTransformerParameter{
  +dict : Dictionary
}

interface Dictionary{
  +entries : DictionaryEntry[]
}

interface DictionaryEntry{
  +key1 : string
  +key2 : string
  +method : TextReplacerMethod
}

interface Data{
  +base : any
  +meta : any
}

interface Pipeline{
  +addWorkspace(workspace: Workspace): void
  +removeWorkspace(workspace: Workspace): void
}

interface StartablePipeline{
  +start(): void
}

interface SchedulablePipeline{
  +schedule(cron: string): void
}

class BasicPipeline{
  +workspaces : Workspace[]
  +addWorkspace(workspace: Workspace): void
  +removeWorkspace(workspace: Workspace): void
  +start(): void
  +schedule(cron: string): void
}

class TextReplacer{
  +replace(text: string, searchValue: string, replaceValue: string): string
  #_getRegex(replaceValue: string): string
}

class WordReplacer{
  +_getRegex(replaceValue: string): string
}

class SpecialReplacer{
  +_getRegex(replaceValue: string): string
}

class ExactReplacer{
  +_getRegex(replaceValue: string): string
}

class TextReplacerFactory{
  +create(method: TextReplacerMethod): TextReplacer
}

interface Workspace{
  +id : number
  +title : string
  +nodes : Node[]
  +addNode(node: Node): void
  +removeNode(node: Node): void
  +start(): void
  +pause(): void
  +resume(): void
  +stop(): void
}

class EtlWorkspace{
  +id : number
  +title : string
  +nodes : Node[]
  +relationships : NodeRelationship[]
  +currNode : Node
  +addNode(node: Node): void
  +removeNode(node: Node): void
  +start(): void
  +pause(): void
  +resume(): void
  +stop(): void
}

EtlNode - -> Command
EtlNode - -> NodeStatus
Processor - -> ProcessorAttributes
Processor - -> Parameter
HarmonizeTransformer - -> Dictionary
NodeRelationship - -> Node
NodeRelationship - -> NodeRelationshipType
DictionaryTransformerParameter - -> Dictionary
DictionaryEntry - -> TextReplacerMethod
EtlWorkspace - -> Node
Node <|- - EtlNode
Command <|- - Processor
Processor <|- - AbstractTransformer
Processor <|- - AbstractReader
AbstractReader <|- - FtpReader
Parameter <|- - ReaderParameter
ReaderParameter <|- - FtpReaderParameter
AbstractTransformer <|- - UpperCaseTransformer
AbstractTransformer <|- - HarmonizeTransformer
Parameter <|- - TransformerParameter
TransformerParameter <|- - LookupParameter
TransformerParameter <|- - DictionaryTransformerParameter
Pipeline <|- - BasicPipeline
StartablePipeline <|- - BasicPipeline
SchedulablePipeline <|- - BasicPipeline
TextReplacer <|- - WordReplacer
TextReplacer <|- - SpecialReplacer
TextReplacer <|- - ExactReplacer
Workspace <|- - EtlWorkspace
@enduml

PlantUML version 1.2019.05(Sat Apr 20 16:45:36 UTC 2019)
(GPL source distribution)
Java Runtime: Java(TM) SE Runtime Environment
JVM: Java HotSpot(TM) 64-Bit Server VM
Java Version: 1.7.0_25-b15
Operating System: Linux
Default Encoding: UTF-8
Language: en
Country: US
--></g></svg>